<mxfile host="Electron" agent="Mozilla/5.0 (Windows NT 10.0; Win64; x64) AppleWebKit/537.36 (KHTML, like Gecko) draw.io/28.2.5 Chrome/138.0.7204.251 Electron/37.6.1 Safari/537.36" version="28.2.5">
  <diagram name="Страница — 1" id="L8aaTkvVzrVnChPFkseP">
    <mxGraphModel dx="582" dy="978" grid="1" gridSize="10" guides="1" tooltips="1" connect="1" arrows="1" fold="1" page="1" pageScale="1" pageWidth="827" pageHeight="1169" math="0" shadow="0">
      <root>
        <mxCell id="0" />
        <mxCell id="1" parent="0" />
        <mxCell id="cLE-h5-gPLvZNo8UxxvL-1" value="" style="shape=parallelogram;perimeter=parallelogramPerimeter;whiteSpace=wrap;html=1;fixedSize=1;" parent="1" vertex="1">
          <mxGeometry x="360" y="80" width="120" height="80" as="geometry" />
        </mxCell>
        <mxCell id="cLE-h5-gPLvZNo8UxxvL-2" value="&lt;font style=&quot;font-size: 11px;&quot;&gt;Начало&lt;/font&gt;" style="rounded=1;whiteSpace=wrap;html=1;" parent="1" vertex="1">
          <mxGeometry x="360" width="120" height="40" as="geometry" />
        </mxCell>
        <mxCell id="cLE-h5-gPLvZNo8UxxvL-3" value="&lt;font style=&quot;font-size: 11px;&quot;&gt;Вывод &quot;Введите текст, состоящий из&amp;nbsp;&lt;/font&gt;&lt;div&gt;&lt;font style=&quot;font-size: 11px;&quot;&gt;слов на англ языке и&amp;nbsp;&lt;span style=&quot;background-color: transparent; color: light-dark(rgb(0, 0, 0), rgb(255, 255, 255));&quot;&gt;заканчивающийся&amp;nbsp;&lt;/span&gt;&lt;/font&gt;&lt;/div&gt;&lt;div&gt;&lt;span style=&quot;background-color: transparent; color: light-dark(rgb(0, 0, 0), rgb(255, 255, 255));&quot;&gt;&lt;font style=&quot;font-size: 11px;&quot;&gt;точкой (символ точка в тексте единственный).&amp;nbsp;&lt;/font&gt;&lt;/span&gt;&lt;div&gt;&lt;font style=&quot;font-size: 11px;&quot;&gt;Каждое слово состоит из англ букв,&amp;nbsp;&lt;/font&gt;&lt;/div&gt;&lt;div&gt;&lt;font style=&quot;font-size: 11px;&quot;&gt;длина слова не превышает 20 символов.&quot;&lt;/font&gt;&lt;/div&gt;&lt;/div&gt;" style="strokeWidth=2;html=1;shape=mxgraph.flowchart.annotation_1;align=left;pointerEvents=1;" parent="1" vertex="1">
          <mxGeometry x="560" y="10" width="50" height="100" as="geometry" />
        </mxCell>
        <mxCell id="cLE-h5-gPLvZNo8UxxvL-4" value="" style="endArrow=none;dashed=1;html=1;rounded=0;exitX=1;exitY=0.5;exitDx=0;exitDy=0;entryX=0;entryY=0.5;entryDx=0;entryDy=0;entryPerimeter=0;" parent="1" source="cLE-h5-gPLvZNo8UxxvL-1" target="cLE-h5-gPLvZNo8UxxvL-3" edge="1">
          <mxGeometry width="50" height="50" relative="1" as="geometry">
            <mxPoint x="540" y="170" as="sourcePoint" />
            <mxPoint x="590" y="120" as="targetPoint" />
          </mxGeometry>
        </mxCell>
        <mxCell id="cLE-h5-gPLvZNo8UxxvL-6" value="&lt;font style=&quot;font-size: 11px;&quot;&gt;Пустой список words;&lt;/font&gt;&lt;div&gt;&lt;font style=&quot;font-size: 11px;&quot;&gt;Пустой список text_filtered;&lt;/font&gt;&lt;/div&gt;&lt;div&gt;&lt;font style=&quot;font-size: 11px;&quot;&gt;Пустой список list_encrypted&lt;/font&gt;&lt;/div&gt;" style="rounded=0;whiteSpace=wrap;html=1;" parent="1" vertex="1">
          <mxGeometry x="360" y="320" width="120" height="80" as="geometry" />
        </mxCell>
        <mxCell id="cLE-h5-gPLvZNo8UxxvL-7" value="&lt;font style=&quot;font-size: 11px;&quot;&gt;Ввод text&lt;/font&gt;" style="shape=parallelogram;perimeter=parallelogramPerimeter;whiteSpace=wrap;html=1;fixedSize=1;" parent="1" vertex="1">
          <mxGeometry x="354" y="200" width="120" height="80" as="geometry" />
        </mxCell>
        <mxCell id="cLE-h5-gPLvZNo8UxxvL-9" value="&lt;font style=&quot;font-size: 11px;&quot;&gt;word = &quot;&quot;;&lt;/font&gt;&lt;div&gt;&lt;font style=&quot;font-size: 11px;&quot;&gt;text_encrypted = &quot;&quot;;&lt;/font&gt;&lt;/div&gt;&lt;div&gt;&lt;font style=&quot;font-size: 11px;&quot;&gt;is_sentence_ready = 0;&lt;/font&gt;&lt;/div&gt;&lt;div&gt;&lt;font style=&quot;font-size: 11px;&quot;&gt;maxx_len_word = 0&lt;/font&gt;&lt;/div&gt;" style="rounded=0;whiteSpace=wrap;html=1;" parent="1" vertex="1">
          <mxGeometry x="360" y="440" width="120" height="80" as="geometry" />
        </mxCell>
        <mxCell id="cLE-h5-gPLvZNo8UxxvL-10" value="" style="rounded=0;whiteSpace=wrap;html=1;" parent="1" vertex="1">
          <mxGeometry x="360" y="560" width="120" height="80" as="geometry" />
        </mxCell>
        <mxCell id="cLE-h5-gPLvZNo8UxxvL-12" value="alphabet_small =&amp;nbsp;&lt;div&gt;&quot;abcdefghijklmnopqrstuvwxyz&quot;;&lt;div&gt;alphabet_big =&amp;nbsp;&lt;/div&gt;&lt;div&gt;&quot;ABCDEFGHIJKLMNOPQRSTUVWXYZ&quot;&lt;/div&gt;&lt;/div&gt;" style="strokeWidth=2;html=1;shape=mxgraph.flowchart.annotation_1;align=left;pointerEvents=1;" parent="1" vertex="1">
          <mxGeometry x="560" y="370" width="50" height="100" as="geometry" />
        </mxCell>
        <mxCell id="cLE-h5-gPLvZNo8UxxvL-13" value="" style="endArrow=none;dashed=1;html=1;rounded=0;exitX=1;exitY=0.5;exitDx=0;exitDy=0;entryX=0;entryY=0.5;entryDx=0;entryDy=0;entryPerimeter=0;" parent="1" source="cLE-h5-gPLvZNo8UxxvL-10" target="cLE-h5-gPLvZNo8UxxvL-12" edge="1">
          <mxGeometry width="50" height="50" relative="1" as="geometry">
            <mxPoint x="460" y="290" as="sourcePoint" />
            <mxPoint x="510" y="240" as="targetPoint" />
          </mxGeometry>
        </mxCell>
        <mxCell id="cLE-h5-gPLvZNo8UxxvL-15" value="&#39;.&#39;&amp;nbsp; не в text" style="rhombus;whiteSpace=wrap;html=1;" parent="1" vertex="1">
          <mxGeometry x="360" y="680" width="120" height="80" as="geometry" />
        </mxCell>
        <mxCell id="cLE-h5-gPLvZNo8UxxvL-16" value="&lt;font style=&quot;font-size: 11px;&quot;&gt;Вывод &quot;Предло-&lt;/font&gt;&lt;div&gt;&lt;font style=&quot;font-size: 11px;&quot;&gt;жение должно оканчиваться символом &#39;.&#39; &quot;&lt;/font&gt;&lt;/div&gt;" style="shape=parallelogram;perimeter=parallelogramPerimeter;whiteSpace=wrap;html=1;fixedSize=1;" parent="1" vertex="1">
          <mxGeometry x="366" y="800" width="120" height="80" as="geometry" />
        </mxCell>
        <mxCell id="cLE-h5-gPLvZNo8UxxvL-20" value="&lt;font style=&quot;font-size: 11px;&quot;&gt;Ввод text&lt;/font&gt;" style="shape=parallelogram;perimeter=parallelogramPerimeter;whiteSpace=wrap;html=1;fixedSize=1;" parent="1" vertex="1">
          <mxGeometry x="360" y="920" width="120" height="80" as="geometry" />
        </mxCell>
        <mxCell id="cLE-h5-gPLvZNo8UxxvL-26" value="" style="verticalLabelPosition=bottom;verticalAlign=top;html=1;shape=offPageConnector;rounded=0;size=0.3333333333333333;" parent="1" vertex="1">
          <mxGeometry x="400" y="1040" width="40" height="40" as="geometry" />
        </mxCell>
        <mxCell id="cLE-h5-gPLvZNo8UxxvL-27" value="&lt;font style=&quot;font-size: 11px;&quot;&gt;1&lt;/font&gt;&lt;div&gt;&lt;font style=&quot;font-size: 11px;&quot;&gt;2&lt;/font&gt;&lt;/div&gt;" style="text;html=1;align=center;verticalAlign=middle;whiteSpace=wrap;rounded=0;" parent="1" vertex="1">
          <mxGeometry x="390" y="1040" width="60" height="30" as="geometry" />
        </mxCell>
        <mxCell id="cLE-h5-gPLvZNo8UxxvL-365" value="i = 0;&lt;div&gt;i &amp;lt; длины text;&lt;/div&gt;&lt;div&gt;i++&lt;/div&gt;" style="shape=hexagon;perimeter=hexagonPerimeter2;whiteSpace=wrap;html=1;fixedSize=1;" parent="1" vertex="1">
          <mxGeometry x="280" y="1281" width="120" height="80" as="geometry" />
        </mxCell>
        <mxCell id="cLE-h5-gPLvZNo8UxxvL-366" value="" style="rhombus;whiteSpace=wrap;html=1;" parent="1" vertex="1">
          <mxGeometry x="280" y="1441" width="120" height="80" as="geometry" />
        </mxCell>
        <mxCell id="cLE-h5-gPLvZNo8UxxvL-367" value="text[i] в&amp;nbsp;&#39;ABCDEFGHIJKLMNOP&lt;div&gt;QRSTUVWXYZ&lt;div&gt;abcdefghijklmnopqrstuvwxyz,. &#39; и&amp;nbsp;&lt;/div&gt;&lt;div&gt;is_sentence_ready = 0&amp;nbsp;&lt;/div&gt;&lt;/div&gt;" style="strokeWidth=2;html=1;shape=mxgraph.flowchart.annotation_1;align=left;pointerEvents=1;" parent="1" vertex="1">
          <mxGeometry x="450" y="1351" width="50" height="100" as="geometry" />
        </mxCell>
        <mxCell id="cLE-h5-gPLvZNo8UxxvL-368" value="" style="endArrow=none;dashed=1;html=1;rounded=0;exitX=1;exitY=0;exitDx=0;exitDy=0;entryX=0;entryY=0.5;entryDx=0;entryDy=0;entryPerimeter=0;" parent="1" source="cLE-h5-gPLvZNo8UxxvL-366" target="cLE-h5-gPLvZNo8UxxvL-367" edge="1">
          <mxGeometry width="50" height="50" relative="1" as="geometry">
            <mxPoint x="270" y="1311" as="sourcePoint" />
            <mxPoint x="320" y="1261" as="targetPoint" />
          </mxGeometry>
        </mxCell>
        <mxCell id="cLE-h5-gPLvZNo8UxxvL-369" value="text[i] не = &#39;.&#39;" style="rhombus;whiteSpace=wrap;html=1;" parent="1" vertex="1">
          <mxGeometry x="400" y="1501" width="120" height="80" as="geometry" />
        </mxCell>
        <mxCell id="cLE-h5-gPLvZNo8UxxvL-370" value="" style="verticalLabelPosition=bottom;verticalAlign=top;html=1;shape=offPageConnector;rounded=0;size=0.3333333333333333;" parent="1" vertex="1">
          <mxGeometry x="320" y="1200" width="40" height="40" as="geometry" />
        </mxCell>
        <mxCell id="cLE-h5-gPLvZNo8UxxvL-371" value="&lt;font style=&quot;font-size: 11px;&quot;&gt;1&lt;/font&gt;&lt;div&gt;&lt;font style=&quot;font-size: 11px;&quot;&gt;2&lt;/font&gt;&lt;/div&gt;" style="text;html=1;align=center;verticalAlign=middle;whiteSpace=wrap;rounded=0;" parent="1" vertex="1">
          <mxGeometry x="310" y="1200" width="60" height="30" as="geometry" />
        </mxCell>
        <mxCell id="cLE-h5-gPLvZNo8UxxvL-372" value="text[i]&amp;nbsp;&lt;div&gt;не = &#39; &#39;&amp;nbsp;&lt;span style=&quot;background-color: transparent; color: light-dark(rgb(0, 0, 0), rgb(255, 255, 255));&quot;&gt;и&amp;nbsp;&lt;/span&gt;&lt;div&gt;&lt;div&gt;длина&amp;nbsp;&lt;span style=&quot;background-color: transparent; color: light-dark(rgb(0, 0, 0), rgb(255, 255, 255));&quot;&gt;word&amp;nbsp;&lt;/span&gt;&lt;/div&gt;&lt;div&gt;&lt;span style=&quot;background-color: transparent; color: light-dark(rgb(0, 0, 0), rgb(255, 255, 255));&quot;&gt;!= 20&lt;/span&gt;&lt;/div&gt;&lt;/div&gt;&lt;/div&gt;" style="rhombus;whiteSpace=wrap;html=1;" parent="1" vertex="1">
          <mxGeometry x="520" y="1561" width="120" height="80" as="geometry" />
        </mxCell>
        <mxCell id="cLE-h5-gPLvZNo8UxxvL-373" value="word = word + text[i]" style="rounded=0;whiteSpace=wrap;html=1;" parent="1" vertex="1">
          <mxGeometry x="660" y="1621" width="120" height="80" as="geometry" />
        </mxCell>
        <mxCell id="cLE-h5-gPLvZNo8UxxvL-374" value="text[i]&amp;nbsp;&lt;div&gt;не = &#39; &#39;&amp;nbsp;&lt;span style=&quot;background-color: transparent; color: light-dark(rgb(0, 0, 0), rgb(255, 255, 255));&quot;&gt;и&amp;nbsp;&lt;/span&gt;&lt;div&gt;&lt;div&gt;длина&amp;nbsp;&lt;span style=&quot;background-color: transparent; color: light-dark(rgb(0, 0, 0), rgb(255, 255, 255));&quot;&gt;word&amp;nbsp;&lt;/span&gt;&lt;/div&gt;&lt;div&gt;&lt;span style=&quot;background-color: transparent; color: light-dark(rgb(0, 0, 0), rgb(255, 255, 255));&quot;&gt;== 20&lt;/span&gt;&lt;/div&gt;&lt;/div&gt;&lt;/div&gt;" style="rhombus;whiteSpace=wrap;html=1;" parent="1" vertex="1">
          <mxGeometry x="380" y="1621" width="120" height="80" as="geometry" />
        </mxCell>
        <mxCell id="cLE-h5-gPLvZNo8UxxvL-375" value="" style="endArrow=none;html=1;rounded=0;exitX=0.5;exitY=0;exitDx=0;exitDy=0;entryX=0.5;entryY=1;entryDx=0;entryDy=0;" parent="1" source="cLE-h5-gPLvZNo8UxxvL-365" target="cLE-h5-gPLvZNo8UxxvL-370" edge="1">
          <mxGeometry width="50" height="50" relative="1" as="geometry">
            <mxPoint x="400" y="1311" as="sourcePoint" />
            <mxPoint x="450" y="1261" as="targetPoint" />
          </mxGeometry>
        </mxCell>
        <mxCell id="cLE-h5-gPLvZNo8UxxvL-376" value="" style="endArrow=none;html=1;rounded=0;entryX=0.5;entryY=1;entryDx=0;entryDy=0;" parent="1" source="cLE-h5-gPLvZNo8UxxvL-366" target="cLE-h5-gPLvZNo8UxxvL-365" edge="1">
          <mxGeometry width="50" height="50" relative="1" as="geometry">
            <mxPoint x="310" y="1422" as="sourcePoint" />
            <mxPoint x="310" y="1391" as="targetPoint" />
          </mxGeometry>
        </mxCell>
        <mxCell id="cLE-h5-gPLvZNo8UxxvL-377" value="" style="endArrow=none;html=1;rounded=0;entryX=1;entryY=0.5;entryDx=0;entryDy=0;exitX=0.5;exitY=0;exitDx=0;exitDy=0;" parent="1" source="cLE-h5-gPLvZNo8UxxvL-369" target="cLE-h5-gPLvZNo8UxxvL-366" edge="1">
          <mxGeometry width="50" height="50" relative="1" as="geometry">
            <mxPoint x="350" y="1611" as="sourcePoint" />
            <mxPoint x="350" y="1531" as="targetPoint" />
            <Array as="points">
              <mxPoint x="460" y="1481" />
            </Array>
          </mxGeometry>
        </mxCell>
        <mxCell id="cLE-h5-gPLvZNo8UxxvL-378" value="" style="endArrow=none;html=1;rounded=0;entryX=1;entryY=0.5;entryDx=0;entryDy=0;exitX=0.5;exitY=0;exitDx=0;exitDy=0;" parent="1" source="cLE-h5-gPLvZNo8UxxvL-372" target="cLE-h5-gPLvZNo8UxxvL-369" edge="1">
          <mxGeometry width="50" height="50" relative="1" as="geometry">
            <mxPoint x="420" y="1631" as="sourcePoint" />
            <mxPoint x="420" y="1551" as="targetPoint" />
            <Array as="points">
              <mxPoint x="580" y="1541" />
            </Array>
          </mxGeometry>
        </mxCell>
        <mxCell id="cLE-h5-gPLvZNo8UxxvL-379" value="" style="endArrow=none;html=1;rounded=0;entryX=1;entryY=0.5;entryDx=0;entryDy=0;exitX=0.5;exitY=0;exitDx=0;exitDy=0;" parent="1" source="cLE-h5-gPLvZNo8UxxvL-373" target="cLE-h5-gPLvZNo8UxxvL-372" edge="1">
          <mxGeometry width="50" height="50" relative="1" as="geometry">
            <mxPoint x="610" y="1771" as="sourcePoint" />
            <mxPoint x="610" y="1691" as="targetPoint" />
            <Array as="points">
              <mxPoint x="720" y="1601" />
            </Array>
          </mxGeometry>
        </mxCell>
        <mxCell id="cLE-h5-gPLvZNo8UxxvL-380" value="" style="endArrow=none;html=1;rounded=0;entryX=0;entryY=0.5;entryDx=0;entryDy=0;exitX=0.5;exitY=0;exitDx=0;exitDy=0;" parent="1" source="cLE-h5-gPLvZNo8UxxvL-374" target="cLE-h5-gPLvZNo8UxxvL-372" edge="1">
          <mxGeometry width="50" height="50" relative="1" as="geometry">
            <mxPoint x="520" y="1791" as="sourcePoint" />
            <mxPoint x="520" y="1711" as="targetPoint" />
            <Array as="points">
              <mxPoint x="440" y="1601" />
            </Array>
          </mxGeometry>
        </mxCell>
        <mxCell id="cLE-h5-gPLvZNo8UxxvL-381" value="words = words + word&lt;div&gt;word = text[i]&lt;/div&gt;" style="rounded=0;whiteSpace=wrap;html=1;" parent="1" vertex="1">
          <mxGeometry x="520" y="1681" width="120" height="80" as="geometry" />
        </mxCell>
        <mxCell id="cLE-h5-gPLvZNo8UxxvL-382" value="" style="endArrow=none;html=1;rounded=0;exitX=1;exitY=0.5;exitDx=0;exitDy=0;entryX=0.5;entryY=0;entryDx=0;entryDy=0;" parent="1" source="cLE-h5-gPLvZNo8UxxvL-374" target="cLE-h5-gPLvZNo8UxxvL-381" edge="1">
          <mxGeometry width="50" height="50" relative="1" as="geometry">
            <mxPoint x="570" y="1711" as="sourcePoint" />
            <mxPoint x="620" y="1661" as="targetPoint" />
            <Array as="points">
              <mxPoint x="580" y="1661" />
            </Array>
          </mxGeometry>
        </mxCell>
        <mxCell id="cLE-h5-gPLvZNo8UxxvL-383" value="text[i]&amp;nbsp;&lt;div&gt;не = &#39; &#39;&amp;nbsp;&lt;span style=&quot;background-color: transparent; color: light-dark(rgb(0, 0, 0), rgb(255, 255, 255));&quot;&gt;и&amp;nbsp;&lt;/span&gt;&lt;div&gt;&lt;div&gt;длина&amp;nbsp;&lt;span style=&quot;background-color: transparent; color: light-dark(rgb(0, 0, 0), rgb(255, 255, 255));&quot;&gt;word&amp;nbsp;&lt;/span&gt;&lt;/div&gt;&lt;div&gt;&lt;span style=&quot;background-color: transparent; color: light-dark(rgb(0, 0, 0), rgb(255, 255, 255));&quot;&gt;== 20&lt;/span&gt;&lt;/div&gt;&lt;/div&gt;&lt;/div&gt;" style="rhombus;whiteSpace=wrap;html=1;" parent="1" vertex="1">
          <mxGeometry x="240" y="1681" width="120" height="80" as="geometry" />
        </mxCell>
        <mxCell id="cLE-h5-gPLvZNo8UxxvL-384" value="" style="endArrow=none;html=1;rounded=0;exitX=0.5;exitY=0;exitDx=0;exitDy=0;entryX=0;entryY=0.5;entryDx=0;entryDy=0;" parent="1" source="cLE-h5-gPLvZNo8UxxvL-383" target="cLE-h5-gPLvZNo8UxxvL-374" edge="1">
          <mxGeometry width="50" height="50" relative="1" as="geometry">
            <mxPoint x="380" y="1731" as="sourcePoint" />
            <mxPoint x="430" y="1681" as="targetPoint" />
            <Array as="points">
              <mxPoint x="300" y="1661" />
            </Array>
          </mxGeometry>
        </mxCell>
        <mxCell id="cLE-h5-gPLvZNo8UxxvL-385" value="words = words + word&lt;div&gt;word = &#39; &#39;&lt;/div&gt;" style="rounded=0;whiteSpace=wrap;html=1;" parent="1" vertex="1">
          <mxGeometry x="380" y="1741" width="120" height="80" as="geometry" />
        </mxCell>
        <mxCell id="cLE-h5-gPLvZNo8UxxvL-386" value="is_sentence_ready = 1" style="rounded=0;whiteSpace=wrap;html=1;" parent="1" vertex="1">
          <mxGeometry x="80" y="1561" width="120" height="80" as="geometry" />
        </mxCell>
        <mxCell id="cLE-h5-gPLvZNo8UxxvL-387" value="" style="endArrow=none;html=1;rounded=0;entryX=0;entryY=0.5;entryDx=0;entryDy=0;exitX=0.5;exitY=0;exitDx=0;exitDy=0;" parent="1" source="cLE-h5-gPLvZNo8UxxvL-386" target="cLE-h5-gPLvZNo8UxxvL-369" edge="1">
          <mxGeometry width="50" height="50" relative="1" as="geometry">
            <mxPoint x="280" y="1551" as="sourcePoint" />
            <mxPoint x="330" y="1501" as="targetPoint" />
            <Array as="points">
              <mxPoint x="140" y="1541" />
            </Array>
          </mxGeometry>
        </mxCell>
        <mxCell id="cLE-h5-gPLvZNo8UxxvL-388" value="" style="endArrow=none;html=1;rounded=0;entryX=0.5;entryY=1;entryDx=0;entryDy=0;" parent="1" target="cLE-h5-gPLvZNo8UxxvL-386" edge="1">
          <mxGeometry width="50" height="50" relative="1" as="geometry">
            <mxPoint x="580" y="1870" as="sourcePoint" />
            <mxPoint x="310" y="1681" as="targetPoint" />
            <Array as="points">
              <mxPoint x="580" y="1890" />
              <mxPoint x="140" y="1890" />
            </Array>
          </mxGeometry>
        </mxCell>
        <mxCell id="cLE-h5-gPLvZNo8UxxvL-389" value="" style="endArrow=none;html=1;rounded=0;entryX=1;entryY=0.5;entryDx=0;entryDy=0;exitX=0.5;exitY=0;exitDx=0;exitDy=0;" parent="1" source="cLE-h5-gPLvZNo8UxxvL-385" target="cLE-h5-gPLvZNo8UxxvL-383" edge="1">
          <mxGeometry width="50" height="50" relative="1" as="geometry">
            <mxPoint x="300" y="1841" as="sourcePoint" />
            <mxPoint x="310" y="1681" as="targetPoint" />
            <Array as="points">
              <mxPoint x="440" y="1721" />
            </Array>
          </mxGeometry>
        </mxCell>
        <mxCell id="cLE-h5-gPLvZNo8UxxvL-390" value="" style="endArrow=none;html=1;rounded=0;entryX=0;entryY=0.5;entryDx=0;entryDy=0;exitX=0.5;exitY=1;exitDx=0;exitDy=0;" parent="1" source="cLE-h5-gPLvZNo8UxxvL-385" target="cLE-h5-gPLvZNo8UxxvL-383" edge="1">
          <mxGeometry width="50" height="50" relative="1" as="geometry">
            <mxPoint x="330" y="1851" as="sourcePoint" />
            <mxPoint x="380" y="1801" as="targetPoint" />
            <Array as="points">
              <mxPoint x="440" y="1831" />
              <mxPoint x="160" y="1831" />
              <mxPoint x="160" y="1721" />
            </Array>
          </mxGeometry>
        </mxCell>
        <mxCell id="3F7OWATZXx6KOtZ6KmK9-1" value="" style="endArrow=none;html=1;rounded=0;entryX=0.5;entryY=1;entryDx=0;entryDy=0;" parent="1" target="cLE-h5-gPLvZNo8UxxvL-381" edge="1">
          <mxGeometry width="50" height="50" relative="1" as="geometry">
            <mxPoint x="300" y="1831" as="sourcePoint" />
            <mxPoint x="580" y="1762" as="targetPoint" />
            <Array as="points">
              <mxPoint x="300" y="1850" />
              <mxPoint x="580" y="1850" />
            </Array>
          </mxGeometry>
        </mxCell>
        <mxCell id="3F7OWATZXx6KOtZ6KmK9-222" value="" style="endArrow=none;html=1;rounded=0;entryX=0.5;entryY=1;entryDx=0;entryDy=0;" parent="1" target="cLE-h5-gPLvZNo8UxxvL-373" edge="1">
          <mxGeometry width="50" height="50" relative="1" as="geometry">
            <mxPoint x="440" y="1850" as="sourcePoint" />
            <mxPoint x="740" y="1900" as="targetPoint" />
            <Array as="points">
              <mxPoint x="440" y="1870" />
              <mxPoint x="720" y="1870" />
            </Array>
          </mxGeometry>
        </mxCell>
        <mxCell id="3F7OWATZXx6KOtZ6KmK9-223" value="" style="endArrow=none;html=1;rounded=0;entryX=0;entryY=0.5;entryDx=0;entryDy=0;" parent="1" target="cLE-h5-gPLvZNo8UxxvL-366" edge="1">
          <mxGeometry width="50" height="50" relative="1" as="geometry">
            <mxPoint x="460" y="1890" as="sourcePoint" />
            <mxPoint x="220" y="1690" as="targetPoint" />
            <Array as="points">
              <mxPoint x="460" y="1910" />
              <mxPoint x="340" y="1910" />
              <mxPoint x="60" y="1910" />
              <mxPoint x="60" y="1480" />
            </Array>
          </mxGeometry>
        </mxCell>
        <mxCell id="3F7OWATZXx6KOtZ6KmK9-225" value="" style="endArrow=classic;html=1;rounded=0;entryX=0;entryY=0.5;entryDx=0;entryDy=0;" parent="1" target="cLE-h5-gPLvZNo8UxxvL-365" edge="1">
          <mxGeometry width="50" height="50" relative="1" as="geometry">
            <mxPoint x="340" y="1910" as="sourcePoint" />
            <mxPoint x="240" y="1410" as="targetPoint" />
            <Array as="points">
              <mxPoint x="340" y="1930" />
              <mxPoint x="40" y="1930" />
              <mxPoint x="40" y="1321" />
            </Array>
          </mxGeometry>
        </mxCell>
        <mxCell id="3F7OWATZXx6KOtZ6KmK9-227" value="" style="endArrow=none;html=1;rounded=0;entryX=1;entryY=0.5;entryDx=0;entryDy=0;" parent="1" target="cLE-h5-gPLvZNo8UxxvL-365" edge="1">
          <mxGeometry width="50" height="50" relative="1" as="geometry">
            <mxPoint x="340" y="1960" as="sourcePoint" />
            <mxPoint x="380" y="1600" as="targetPoint" />
            <Array as="points">
              <mxPoint x="340" y="1940" />
              <mxPoint x="800" y="1940" />
              <mxPoint x="800" y="1321" />
            </Array>
          </mxGeometry>
        </mxCell>
        <mxCell id="3F7OWATZXx6KOtZ6KmK9-228" value="длина word не = 0" style="rhombus;whiteSpace=wrap;html=1;" parent="1" vertex="1">
          <mxGeometry x="280" y="1960" width="120" height="80" as="geometry" />
        </mxCell>
        <mxCell id="3F7OWATZXx6KOtZ6KmK9-229" value="words = words + word" style="rounded=0;whiteSpace=wrap;html=1;" parent="1" vertex="1">
          <mxGeometry x="420" y="2020" width="120" height="80" as="geometry" />
        </mxCell>
        <mxCell id="3F7OWATZXx6KOtZ6KmK9-230" value="True" style="text;html=1;align=center;verticalAlign=middle;whiteSpace=wrap;rounded=0;" parent="1" vertex="1">
          <mxGeometry x="414" y="1451" width="60" height="30" as="geometry" />
        </mxCell>
        <mxCell id="3F7OWATZXx6KOtZ6KmK9-232" value="False" style="text;html=1;align=center;verticalAlign=middle;whiteSpace=wrap;rounded=0;" parent="1" vertex="1">
          <mxGeometry x="50" y="1451" width="60" height="30" as="geometry" />
        </mxCell>
        <mxCell id="3F7OWATZXx6KOtZ6KmK9-233" value="True" style="text;html=1;align=center;verticalAlign=middle;whiteSpace=wrap;rounded=0;" parent="1" vertex="1">
          <mxGeometry x="530" y="1510" width="60" height="30" as="geometry" />
        </mxCell>
        <mxCell id="3F7OWATZXx6KOtZ6KmK9-234" value="True" style="text;html=1;align=center;verticalAlign=middle;whiteSpace=wrap;rounded=0;" parent="1" vertex="1">
          <mxGeometry x="670" y="1570" width="60" height="30" as="geometry" />
        </mxCell>
        <mxCell id="3F7OWATZXx6KOtZ6KmK9-235" value="True" style="text;html=1;align=center;verticalAlign=middle;whiteSpace=wrap;rounded=0;" parent="1" vertex="1">
          <mxGeometry x="530" y="1630" width="60" height="30" as="geometry" />
        </mxCell>
        <mxCell id="3F7OWATZXx6KOtZ6KmK9-236" value="True" style="text;html=1;align=center;verticalAlign=middle;whiteSpace=wrap;rounded=0;" parent="1" vertex="1">
          <mxGeometry x="390" y="1690" width="60" height="30" as="geometry" />
        </mxCell>
        <mxCell id="3F7OWATZXx6KOtZ6KmK9-237" value="True" style="text;html=1;align=center;verticalAlign=middle;whiteSpace=wrap;rounded=0;" parent="1" vertex="1">
          <mxGeometry x="430" y="1970" width="60" height="30" as="geometry" />
        </mxCell>
        <mxCell id="3F7OWATZXx6KOtZ6KmK9-238" value="False" style="text;html=1;align=center;verticalAlign=middle;whiteSpace=wrap;rounded=0;" parent="1" vertex="1">
          <mxGeometry x="140" y="1510" width="60" height="30" as="geometry" />
        </mxCell>
        <mxCell id="3F7OWATZXx6KOtZ6KmK9-239" value="False" style="text;html=1;align=center;verticalAlign=middle;whiteSpace=wrap;rounded=0;" parent="1" vertex="1">
          <mxGeometry x="294" y="1630" width="60" height="30" as="geometry" />
        </mxCell>
        <mxCell id="3F7OWATZXx6KOtZ6KmK9-240" value="False" style="text;html=1;align=center;verticalAlign=middle;whiteSpace=wrap;rounded=0;" parent="1" vertex="1">
          <mxGeometry x="160" y="1690" width="60" height="30" as="geometry" />
        </mxCell>
        <mxCell id="3F7OWATZXx6KOtZ6KmK9-241" value="False" style="text;html=1;align=center;verticalAlign=middle;whiteSpace=wrap;rounded=0;" parent="1" vertex="1">
          <mxGeometry x="460" y="1570" width="60" height="30" as="geometry" />
        </mxCell>
        <mxCell id="3F7OWATZXx6KOtZ6KmK9-242" value="False" style="text;html=1;align=center;verticalAlign=middle;whiteSpace=wrap;rounded=0;" parent="1" vertex="1">
          <mxGeometry x="190" y="1970" width="60" height="30" as="geometry" />
        </mxCell>
        <mxCell id="3F7OWATZXx6KOtZ6KmK9-243" value="" style="endArrow=none;html=1;rounded=0;exitX=0.5;exitY=0;exitDx=0;exitDy=0;entryX=1;entryY=0.5;entryDx=0;entryDy=0;" parent="1" source="3F7OWATZXx6KOtZ6KmK9-229" target="3F7OWATZXx6KOtZ6KmK9-228" edge="1">
          <mxGeometry width="50" height="50" relative="1" as="geometry">
            <mxPoint x="350" y="1950" as="sourcePoint" />
            <mxPoint x="400" y="1900" as="targetPoint" />
            <Array as="points">
              <mxPoint x="480" y="2000" />
            </Array>
          </mxGeometry>
        </mxCell>
        <mxCell id="3F7OWATZXx6KOtZ6KmK9-244" value="" style="endArrow=none;html=1;rounded=0;exitX=0.5;exitY=1;exitDx=0;exitDy=0;entryX=0;entryY=0.5;entryDx=0;entryDy=0;" parent="1" source="3F7OWATZXx6KOtZ6KmK9-229" target="3F7OWATZXx6KOtZ6KmK9-228" edge="1">
          <mxGeometry width="50" height="50" relative="1" as="geometry">
            <mxPoint x="350" y="1950" as="sourcePoint" />
            <mxPoint x="400" y="1900" as="targetPoint" />
            <Array as="points">
              <mxPoint x="480" y="2110" />
              <mxPoint x="200" y="2110" />
              <mxPoint x="200" y="2000" />
            </Array>
          </mxGeometry>
        </mxCell>
        <mxCell id="3F7OWATZXx6KOtZ6KmK9-246" value="" style="endArrow=none;html=1;rounded=0;" parent="1" edge="1">
          <mxGeometry width="50" height="50" relative="1" as="geometry">
            <mxPoint x="340" y="2130" as="sourcePoint" />
            <mxPoint x="340" y="2110" as="targetPoint" />
          </mxGeometry>
        </mxCell>
        <mxCell id="3F7OWATZXx6KOtZ6KmK9-247" value="" style="endArrow=none;html=1;rounded=0;entryX=0.5;entryY=1;entryDx=0;entryDy=0;exitX=0.5;exitY=0;exitDx=0;exitDy=0;" parent="1" source="cLE-h5-gPLvZNo8UxxvL-1" target="cLE-h5-gPLvZNo8UxxvL-2" edge="1">
          <mxGeometry width="50" height="50" relative="1" as="geometry">
            <mxPoint x="340" y="380" as="sourcePoint" />
            <mxPoint x="390" y="330" as="targetPoint" />
          </mxGeometry>
        </mxCell>
        <mxCell id="3F7OWATZXx6KOtZ6KmK9-248" value="" style="endArrow=none;html=1;rounded=0;entryX=0.5;entryY=1;entryDx=0;entryDy=0;exitX=0.5;exitY=0;exitDx=0;exitDy=0;" parent="1" edge="1">
          <mxGeometry width="50" height="50" relative="1" as="geometry">
            <mxPoint x="419.13" y="200" as="sourcePoint" />
            <mxPoint x="419.13" y="160" as="targetPoint" />
          </mxGeometry>
        </mxCell>
        <mxCell id="3F7OWATZXx6KOtZ6KmK9-249" value="" style="endArrow=none;html=1;rounded=0;entryX=0.5;entryY=1;entryDx=0;entryDy=0;exitX=0.5;exitY=0;exitDx=0;exitDy=0;" parent="1" edge="1">
          <mxGeometry width="50" height="50" relative="1" as="geometry">
            <mxPoint x="420" y="320" as="sourcePoint" />
            <mxPoint x="420" y="280" as="targetPoint" />
          </mxGeometry>
        </mxCell>
        <mxCell id="3F7OWATZXx6KOtZ6KmK9-250" value="" style="endArrow=none;html=1;rounded=0;entryX=0.5;entryY=1;entryDx=0;entryDy=0;exitX=0.5;exitY=0;exitDx=0;exitDy=0;" parent="1" edge="1">
          <mxGeometry width="50" height="50" relative="1" as="geometry">
            <mxPoint x="420" y="440" as="sourcePoint" />
            <mxPoint x="420" y="400" as="targetPoint" />
          </mxGeometry>
        </mxCell>
        <mxCell id="3F7OWATZXx6KOtZ6KmK9-251" value="" style="endArrow=none;html=1;rounded=0;entryX=0.5;entryY=1;entryDx=0;entryDy=0;exitX=0.5;exitY=0;exitDx=0;exitDy=0;" parent="1" edge="1">
          <mxGeometry width="50" height="50" relative="1" as="geometry">
            <mxPoint x="420" y="560" as="sourcePoint" />
            <mxPoint x="420" y="520" as="targetPoint" />
          </mxGeometry>
        </mxCell>
        <mxCell id="3F7OWATZXx6KOtZ6KmK9-252" value="" style="endArrow=none;html=1;rounded=0;entryX=0.5;entryY=1;entryDx=0;entryDy=0;exitX=0.5;exitY=0;exitDx=0;exitDy=0;" parent="1" edge="1">
          <mxGeometry width="50" height="50" relative="1" as="geometry">
            <mxPoint x="420" y="680" as="sourcePoint" />
            <mxPoint x="420" y="640" as="targetPoint" />
          </mxGeometry>
        </mxCell>
        <mxCell id="3F7OWATZXx6KOtZ6KmK9-253" value="" style="endArrow=none;html=1;rounded=0;entryX=0.5;entryY=1;entryDx=0;entryDy=0;exitX=0.5;exitY=0;exitDx=0;exitDy=0;" parent="1" edge="1">
          <mxGeometry width="50" height="50" relative="1" as="geometry">
            <mxPoint x="420" y="800" as="sourcePoint" />
            <mxPoint x="420" y="760" as="targetPoint" />
          </mxGeometry>
        </mxCell>
        <mxCell id="3F7OWATZXx6KOtZ6KmK9-254" value="" style="endArrow=none;html=1;rounded=0;entryX=0.5;entryY=1;entryDx=0;entryDy=0;exitX=0.5;exitY=0;exitDx=0;exitDy=0;" parent="1" edge="1">
          <mxGeometry width="50" height="50" relative="1" as="geometry">
            <mxPoint x="419.39" y="920" as="sourcePoint" />
            <mxPoint x="419.39" y="880" as="targetPoint" />
          </mxGeometry>
        </mxCell>
        <mxCell id="3F7OWATZXx6KOtZ6KmK9-256" value="" style="endArrow=none;html=1;rounded=0;entryX=1;entryY=0.5;entryDx=0;entryDy=0;exitX=0.5;exitY=0;exitDx=0;exitDy=0;" parent="1" source="cLE-h5-gPLvZNo8UxxvL-27" target="cLE-h5-gPLvZNo8UxxvL-15" edge="1">
          <mxGeometry width="50" height="50" relative="1" as="geometry">
            <mxPoint x="590" y="640" as="sourcePoint" />
            <mxPoint x="640" y="590" as="targetPoint" />
            <Array as="points">
              <mxPoint x="420" y="1030" />
              <mxPoint x="520" y="1030" />
              <mxPoint x="520" y="720" />
            </Array>
          </mxGeometry>
        </mxCell>
        <mxCell id="3F7OWATZXx6KOtZ6KmK9-257" value="" style="endArrow=classic;html=1;rounded=0;exitX=0.48;exitY=1.005;exitDx=0;exitDy=0;exitPerimeter=0;" parent="1" source="cLE-h5-gPLvZNo8UxxvL-20" edge="1">
          <mxGeometry width="50" height="50" relative="1" as="geometry">
            <mxPoint x="450" y="1030" as="sourcePoint" />
            <mxPoint x="420" y="659.5238095238095" as="targetPoint" />
            <Array as="points">
              <mxPoint x="418" y="1010" />
              <mxPoint x="320" y="1010" />
              <mxPoint x="320" y="660" />
            </Array>
          </mxGeometry>
        </mxCell>
        <mxCell id="3F7OWATZXx6KOtZ6KmK9-259" value="&lt;font style=&quot;font-size: 11px;&quot;&gt;word = &quot;&quot;;&lt;/font&gt;&lt;div&gt;&lt;font style=&quot;font-size: 11px;&quot;&gt;Заполняем список list_encrypted пустыми элементами, умножая на длину words&lt;/font&gt;&lt;/div&gt;" style="rounded=0;whiteSpace=wrap;html=1;" parent="1" vertex="1">
          <mxGeometry x="280" y="2130" width="120" height="80" as="geometry" />
        </mxCell>
        <mxCell id="3F7OWATZXx6KOtZ6KmK9-260" value="" style="verticalLabelPosition=bottom;verticalAlign=top;html=1;shape=offPageConnector;rounded=0;size=0.3333333333333333;" parent="1" vertex="1">
          <mxGeometry x="320" y="2230" width="40" height="40" as="geometry" />
        </mxCell>
        <mxCell id="3F7OWATZXx6KOtZ6KmK9-261" value="&lt;span style=&quot;font-size: 11px;&quot;&gt;2&lt;/span&gt;&lt;div&gt;&lt;span style=&quot;font-size: 11px;&quot;&gt;3&lt;/span&gt;&lt;/div&gt;" style="text;html=1;align=center;verticalAlign=middle;whiteSpace=wrap;rounded=0;" parent="1" vertex="1">
          <mxGeometry x="310" y="2230" width="60" height="30" as="geometry" />
        </mxCell>
        <mxCell id="3F7OWATZXx6KOtZ6KmK9-262" value="" style="endArrow=none;html=1;rounded=0;exitX=0.5;exitY=0;exitDx=0;exitDy=0;entryX=0.5;entryY=1;entryDx=0;entryDy=0;" parent="1" source="3F7OWATZXx6KOtZ6KmK9-261" target="3F7OWATZXx6KOtZ6KmK9-259" edge="1">
          <mxGeometry width="50" height="50" relative="1" as="geometry">
            <mxPoint x="370" y="2220" as="sourcePoint" />
            <mxPoint x="420" y="2170" as="targetPoint" />
          </mxGeometry>
        </mxCell>
        <mxCell id="3F7OWATZXx6KOtZ6KmK9-265" value="" style="verticalLabelPosition=bottom;verticalAlign=top;html=1;shape=offPageConnector;rounded=0;size=0.3333333333333333;" parent="1" vertex="1">
          <mxGeometry x="320" y="2360" width="40" height="40" as="geometry" />
        </mxCell>
        <mxCell id="3F7OWATZXx6KOtZ6KmK9-266" value="&lt;span style=&quot;font-size: 11px;&quot;&gt;2&lt;/span&gt;&lt;div&gt;&lt;span style=&quot;font-size: 11px;&quot;&gt;3&lt;/span&gt;&lt;/div&gt;" style="text;html=1;align=center;verticalAlign=middle;whiteSpace=wrap;rounded=0;" parent="1" vertex="1">
          <mxGeometry x="310" y="2360" width="60" height="30" as="geometry" />
        </mxCell>
        <mxCell id="3F7OWATZXx6KOtZ6KmK9-267" value="Проход по элементам i списка words" style="shape=hexagon;perimeter=hexagonPerimeter2;whiteSpace=wrap;html=1;fixedSize=1;" parent="1" vertex="1">
          <mxGeometry x="280" y="2440" width="120" height="80" as="geometry" />
        </mxCell>
        <mxCell id="3F7OWATZXx6KOtZ6KmK9-268" value="Посимвольный проход j по&amp;nbsp; i" style="shape=hexagon;perimeter=hexagonPerimeter2;whiteSpace=wrap;html=1;fixedSize=1;" parent="1" vertex="1">
          <mxGeometry x="280" y="2560" width="120" height="80" as="geometry" />
        </mxCell>
        <mxCell id="3F7OWATZXx6KOtZ6KmK9-269" value="text_filtered = text_filtered + j" style="rounded=0;whiteSpace=wrap;html=1;" parent="1" vertex="1">
          <mxGeometry x="280" y="2680" width="120" height="80" as="geometry" />
        </mxCell>
        <mxCell id="3F7OWATZXx6KOtZ6KmK9-270" value="i = 0;&lt;div&gt;i &amp;lt; длины words;&lt;/div&gt;&lt;div&gt;i++&lt;/div&gt;" style="shape=hexagon;perimeter=hexagonPerimeter2;whiteSpace=wrap;html=1;fixedSize=1;" parent="1" vertex="1">
          <mxGeometry x="280" y="2840" width="120" height="80" as="geometry" />
        </mxCell>
        <mxCell id="3F7OWATZXx6KOtZ6KmK9-271" value="&lt;font style=&quot;font-size: 11px;&quot;&gt;длина words[i] &amp;gt; maxx_len_word&lt;/font&gt;" style="rhombus;whiteSpace=wrap;html=1;" parent="1" vertex="1">
          <mxGeometry x="280" y="2960" width="120" height="80" as="geometry" />
        </mxCell>
        <mxCell id="3F7OWATZXx6KOtZ6KmK9-272" value="maxx_len_word = длина words[i]" style="rounded=0;whiteSpace=wrap;html=1;" parent="1" vertex="1">
          <mxGeometry x="414" y="3020" width="120" height="80" as="geometry" />
        </mxCell>
        <mxCell id="3F7OWATZXx6KOtZ6KmK9-273" value="K = maxx_len_word" style="rounded=0;whiteSpace=wrap;html=1;" parent="1" vertex="1">
          <mxGeometry x="280" y="3200" width="120" height="80" as="geometry" />
        </mxCell>
        <mxCell id="pTsCop-I9byvKBuPMb4h-2" value="" style="endArrow=none;html=1;rounded=0;entryX=0.5;entryY=1;entryDx=0;entryDy=0;exitX=0.5;exitY=0;exitDx=0;exitDy=0;" edge="1" parent="1" source="3F7OWATZXx6KOtZ6KmK9-267" target="3F7OWATZXx6KOtZ6KmK9-265">
          <mxGeometry width="50" height="50" relative="1" as="geometry">
            <mxPoint x="370" y="2480" as="sourcePoint" />
            <mxPoint x="420" y="2430" as="targetPoint" />
          </mxGeometry>
        </mxCell>
        <mxCell id="pTsCop-I9byvKBuPMb4h-3" value="" style="endArrow=none;html=1;rounded=0;entryX=0.5;entryY=1;entryDx=0;entryDy=0;exitX=0.5;exitY=0;exitDx=0;exitDy=0;" edge="1" parent="1" source="3F7OWATZXx6KOtZ6KmK9-268" target="3F7OWATZXx6KOtZ6KmK9-267">
          <mxGeometry width="50" height="50" relative="1" as="geometry">
            <mxPoint x="330" y="2560" as="sourcePoint" />
            <mxPoint x="330" y="2520" as="targetPoint" />
          </mxGeometry>
        </mxCell>
        <mxCell id="pTsCop-I9byvKBuPMb4h-4" value="" style="endArrow=none;html=1;rounded=0;entryX=0.5;entryY=1;entryDx=0;entryDy=0;exitX=0.5;exitY=0;exitDx=0;exitDy=0;" edge="1" parent="1" source="3F7OWATZXx6KOtZ6KmK9-269" target="3F7OWATZXx6KOtZ6KmK9-268">
          <mxGeometry width="50" height="50" relative="1" as="geometry">
            <mxPoint x="340" y="2720" as="sourcePoint" />
            <mxPoint x="340" y="2680" as="targetPoint" />
          </mxGeometry>
        </mxCell>
        <mxCell id="pTsCop-I9byvKBuPMb4h-5" value="" style="endArrow=none;html=1;rounded=0;entryX=0.5;entryY=1;entryDx=0;entryDy=0;" edge="1" parent="1" target="3F7OWATZXx6KOtZ6KmK9-269">
          <mxGeometry width="50" height="50" relative="1" as="geometry">
            <mxPoint x="340" y="2780" as="sourcePoint" />
            <mxPoint x="340" y="2870" as="targetPoint" />
          </mxGeometry>
        </mxCell>
        <mxCell id="pTsCop-I9byvKBuPMb4h-6" value="" style="endArrow=none;html=1;rounded=0;entryX=0.5;entryY=1;entryDx=0;entryDy=0;exitX=0.5;exitY=0;exitDx=0;exitDy=0;" edge="1" parent="1" source="3F7OWATZXx6KOtZ6KmK9-271" target="3F7OWATZXx6KOtZ6KmK9-270">
          <mxGeometry width="50" height="50" relative="1" as="geometry">
            <mxPoint x="340" y="3010" as="sourcePoint" />
            <mxPoint x="340" y="2970" as="targetPoint" />
          </mxGeometry>
        </mxCell>
        <mxCell id="pTsCop-I9byvKBuPMb4h-7" value="" style="endArrow=none;html=1;rounded=0;entryX=1;entryY=0.5;entryDx=0;entryDy=0;exitX=0.5;exitY=0;exitDx=0;exitDy=0;" edge="1" parent="1" source="3F7OWATZXx6KOtZ6KmK9-272" target="3F7OWATZXx6KOtZ6KmK9-271">
          <mxGeometry width="50" height="50" relative="1" as="geometry">
            <mxPoint x="360" y="3030" as="sourcePoint" />
            <mxPoint x="360" y="2990" as="targetPoint" />
            <Array as="points">
              <mxPoint x="474" y="3000" />
            </Array>
          </mxGeometry>
        </mxCell>
        <mxCell id="pTsCop-I9byvKBuPMb4h-9" value="" style="endArrow=none;html=1;rounded=0;entryX=0;entryY=0.5;entryDx=0;entryDy=0;exitX=0.5;exitY=1;exitDx=0;exitDy=0;" edge="1" parent="1" source="3F7OWATZXx6KOtZ6KmK9-272" target="3F7OWATZXx6KOtZ6KmK9-271">
          <mxGeometry width="50" height="50" relative="1" as="geometry">
            <mxPoint x="340" y="3110" as="sourcePoint" />
            <mxPoint x="230" y="3020" as="targetPoint" />
            <Array as="points">
              <mxPoint x="474" y="3110" />
              <mxPoint x="210" y="3110" />
              <mxPoint x="210" y="3000" />
            </Array>
          </mxGeometry>
        </mxCell>
        <mxCell id="pTsCop-I9byvKBuPMb4h-10" value="" style="endArrow=none;html=1;rounded=0;entryX=0.5;entryY=1;entryDx=0;entryDy=0;exitX=0.5;exitY=0;exitDx=0;exitDy=0;" edge="1" parent="1" target="3F7OWATZXx6KOtZ6KmK9-273">
          <mxGeometry width="50" height="50" relative="1" as="geometry">
            <mxPoint x="340" y="3320" as="sourcePoint" />
            <mxPoint x="260" y="3240" as="targetPoint" />
          </mxGeometry>
        </mxCell>
        <mxCell id="pTsCop-I9byvKBuPMb4h-12" value="" style="endArrow=classic;html=1;rounded=0;entryX=0;entryY=0.5;entryDx=0;entryDy=0;" edge="1" parent="1" target="3F7OWATZXx6KOtZ6KmK9-270">
          <mxGeometry width="50" height="50" relative="1" as="geometry">
            <mxPoint x="340" y="3110" as="sourcePoint" />
            <mxPoint x="380" y="3010" as="targetPoint" />
            <Array as="points">
              <mxPoint x="340" y="3130" />
              <mxPoint x="160" y="3130" />
              <mxPoint x="160" y="2880" />
            </Array>
          </mxGeometry>
        </mxCell>
        <mxCell id="pTsCop-I9byvKBuPMb4h-17" value="" style="endArrow=none;html=1;rounded=0;entryX=1;entryY=0.5;entryDx=0;entryDy=0;exitX=0.5;exitY=0;exitDx=0;exitDy=0;" edge="1" parent="1" source="3F7OWATZXx6KOtZ6KmK9-273" target="3F7OWATZXx6KOtZ6KmK9-270">
          <mxGeometry width="50" height="50" relative="1" as="geometry">
            <mxPoint x="350" y="3180" as="sourcePoint" />
            <mxPoint x="490" y="2920" as="targetPoint" />
            <Array as="points">
              <mxPoint x="340" y="3160" />
              <mxPoint x="580" y="3160" />
              <mxPoint x="580" y="2880" />
            </Array>
          </mxGeometry>
        </mxCell>
        <mxCell id="pTsCop-I9byvKBuPMb4h-19" value="" style="verticalLabelPosition=bottom;verticalAlign=top;html=1;shape=offPageConnector;rounded=0;size=0.3333333333333333;" vertex="1" parent="1">
          <mxGeometry x="320" y="3320" width="40" height="40" as="geometry" />
        </mxCell>
        <mxCell id="pTsCop-I9byvKBuPMb4h-20" value="&lt;span style=&quot;font-size: 11px;&quot;&gt;3&lt;/span&gt;&lt;div&gt;&lt;span style=&quot;font-size: 11px;&quot;&gt;4&lt;/span&gt;&lt;/div&gt;" style="text;html=1;align=center;verticalAlign=middle;whiteSpace=wrap;rounded=0;" vertex="1" parent="1">
          <mxGeometry x="310" y="3320" width="60" height="30" as="geometry" />
        </mxCell>
        <mxCell id="pTsCop-I9byvKBuPMb4h-21" value="" style="verticalLabelPosition=bottom;verticalAlign=top;html=1;shape=offPageConnector;rounded=0;size=0.3333333333333333;" vertex="1" parent="1">
          <mxGeometry x="320" y="3520" width="40" height="40" as="geometry" />
        </mxCell>
        <mxCell id="pTsCop-I9byvKBuPMb4h-22" value="&lt;span style=&quot;font-size: 11px;&quot;&gt;3&lt;/span&gt;&lt;div&gt;&lt;span style=&quot;font-size: 11px;&quot;&gt;4&lt;/span&gt;&lt;/div&gt;" style="text;html=1;align=center;verticalAlign=middle;whiteSpace=wrap;rounded=0;" vertex="1" parent="1">
          <mxGeometry x="310" y="3520" width="60" height="30" as="geometry" />
        </mxCell>
        <mxCell id="pTsCop-I9byvKBuPMb4h-23" value="" style="endArrow=none;html=1;rounded=0;entryX=0.5;entryY=1;entryDx=0;entryDy=0;" edge="1" parent="1" target="pTsCop-I9byvKBuPMb4h-21">
          <mxGeometry width="50" height="50" relative="1" as="geometry">
            <mxPoint x="340" y="3580" as="sourcePoint" />
            <mxPoint x="470" y="3460" as="targetPoint" />
          </mxGeometry>
        </mxCell>
        <mxCell id="pTsCop-I9byvKBuPMb4h-24" value="i = 0;&lt;div&gt;i &amp;lt; длины text_filtered;&lt;/div&gt;&lt;div&gt;i++&lt;/div&gt;" style="shape=hexagon;perimeter=hexagonPerimeter2;whiteSpace=wrap;html=1;fixedSize=1;" vertex="1" parent="1">
          <mxGeometry x="280" y="3580" width="120" height="80" as="geometry" />
        </mxCell>
        <mxCell id="pTsCop-I9byvKBuPMb4h-26" value="" style="endArrow=none;html=1;rounded=0;entryX=0.5;entryY=1;entryDx=0;entryDy=0;exitX=0.5;exitY=0;exitDx=0;exitDy=0;" edge="1" parent="1" source="pTsCop-I9byvKBuPMb4h-27" target="pTsCop-I9byvKBuPMb4h-24">
          <mxGeometry width="50" height="50" relative="1" as="geometry">
            <mxPoint x="340" y="3680" as="sourcePoint" />
            <mxPoint x="290" y="3640" as="targetPoint" />
          </mxGeometry>
        </mxCell>
        <mxCell id="pTsCop-I9byvKBuPMb4h-27" value="&lt;font style=&quot;font-size: 11px;&quot;&gt;text_filtered[i]&amp;nbsp;&lt;/font&gt;&lt;div&gt;&lt;font style=&quot;font-size: 11px;&quot;&gt;&lt;font style=&quot;&quot;&gt;есть&amp;nbsp;&lt;/font&gt;&lt;span style=&quot;background-color: transparent; color: light-dark(rgb(0, 0, 0), rgb(255, 255, 255));&quot;&gt;в&amp;nbsp;&lt;/span&gt;&lt;/font&gt;&lt;/div&gt;&lt;div&gt;&lt;span style=&quot;background-color: transparent; color: light-dark(rgb(0, 0, 0), rgb(255, 255, 255));&quot;&gt;&lt;font style=&quot;font-size: 11px;&quot;&gt;alphabet_big&lt;/font&gt;&lt;/span&gt;&lt;/div&gt;" style="rhombus;whiteSpace=wrap;html=1;" vertex="1" parent="1">
          <mxGeometry x="280" y="3680" width="120" height="80" as="geometry" />
        </mxCell>
        <mxCell id="pTsCop-I9byvKBuPMb4h-29" value="" style="endArrow=none;html=1;rounded=0;entryX=1;entryY=0.5;entryDx=0;entryDy=0;exitX=0.5;exitY=0;exitDx=0;exitDy=0;" edge="1" parent="1" source="pTsCop-I9byvKBuPMb4h-31" target="pTsCop-I9byvKBuPMb4h-27">
          <mxGeometry width="50" height="50" relative="1" as="geometry">
            <mxPoint x="480" y="3740" as="sourcePoint" />
            <mxPoint x="360" y="3710" as="targetPoint" />
            <Array as="points">
              <mxPoint x="600" y="3720" />
              <mxPoint x="480" y="3720" />
            </Array>
          </mxGeometry>
        </mxCell>
        <mxCell id="pTsCop-I9byvKBuPMb4h-31" value="j = 0;&lt;div&gt;j &amp;lt; длины alphabet_big;&lt;br&gt;j++&lt;/div&gt;" style="shape=hexagon;perimeter=hexagonPerimeter2;whiteSpace=wrap;html=1;fixedSize=1;" vertex="1" parent="1">
          <mxGeometry x="540" y="3740" width="120" height="80" as="geometry" />
        </mxCell>
        <mxCell id="pTsCop-I9byvKBuPMb4h-32" value="False" style="text;html=1;align=center;verticalAlign=middle;whiteSpace=wrap;rounded=0;" vertex="1" parent="1">
          <mxGeometry x="210" y="2970" width="60" height="30" as="geometry" />
        </mxCell>
        <mxCell id="pTsCop-I9byvKBuPMb4h-33" value="True" style="text;html=1;align=center;verticalAlign=middle;whiteSpace=wrap;rounded=0;" vertex="1" parent="1">
          <mxGeometry x="420" y="2970" width="60" height="30" as="geometry" />
        </mxCell>
        <mxCell id="pTsCop-I9byvKBuPMb4h-34" value="" style="endArrow=classic;html=1;rounded=0;entryX=0;entryY=0.5;entryDx=0;entryDy=0;" edge="1" parent="1" target="3F7OWATZXx6KOtZ6KmK9-268">
          <mxGeometry width="50" height="50" relative="1" as="geometry">
            <mxPoint x="340" y="2780" as="sourcePoint" />
            <mxPoint x="230" y="2620" as="targetPoint" />
            <Array as="points">
              <mxPoint x="240" y="2780" />
              <mxPoint x="240" y="2600" />
            </Array>
          </mxGeometry>
        </mxCell>
        <mxCell id="pTsCop-I9byvKBuPMb4h-36" value="" style="endArrow=classic;html=1;rounded=0;exitX=1;exitY=0.5;exitDx=0;exitDy=0;entryX=0;entryY=0.5;entryDx=0;entryDy=0;" edge="1" parent="1" source="3F7OWATZXx6KOtZ6KmK9-268" target="3F7OWATZXx6KOtZ6KmK9-267">
          <mxGeometry width="50" height="50" relative="1" as="geometry">
            <mxPoint x="290" y="2790" as="sourcePoint" />
            <mxPoint x="340" y="2740" as="targetPoint" />
            <Array as="points">
              <mxPoint x="440" y="2600" />
              <mxPoint x="440" y="2800" />
              <mxPoint x="200" y="2800" />
              <mxPoint x="200" y="2480" />
            </Array>
          </mxGeometry>
        </mxCell>
        <mxCell id="pTsCop-I9byvKBuPMb4h-37" value="" style="endArrow=none;html=1;rounded=0;entryX=1;entryY=0.5;entryDx=0;entryDy=0;exitX=0.5;exitY=0;exitDx=0;exitDy=0;" edge="1" parent="1" source="3F7OWATZXx6KOtZ6KmK9-270" target="3F7OWATZXx6KOtZ6KmK9-267">
          <mxGeometry width="50" height="50" relative="1" as="geometry">
            <mxPoint x="290" y="2790" as="sourcePoint" />
            <mxPoint x="340" y="2740" as="targetPoint" />
            <Array as="points">
              <mxPoint x="340" y="2820" />
              <mxPoint x="480" y="2820" />
              <mxPoint x="480" y="2480" />
            </Array>
          </mxGeometry>
        </mxCell>
        <mxCell id="pTsCop-I9byvKBuPMb4h-38" value="&lt;font style=&quot;font-size: 11px;&quot;&gt;text_filtered[i]&amp;nbsp;&lt;/font&gt;&lt;div&gt;&lt;font style=&quot;font-size: 11px;&quot;&gt;&lt;span style=&quot;background-color: transparent; color: light-dark(rgb(0, 0, 0), rgb(255, 255, 255));&quot;&gt;==&amp;nbsp;&amp;nbsp;&lt;/span&gt;&lt;/font&gt;&lt;span style=&quot;font-size: 11px; background-color: transparent; color: light-dark(rgb(0, 0, 0), rgb(255, 255, 255));&quot;&gt;alphabet_&lt;/span&gt;&lt;/div&gt;&lt;div&gt;&lt;span style=&quot;font-size: 11px; background-color: transparent; color: light-dark(rgb(0, 0, 0), rgb(255, 255, 255));&quot;&gt;big[j]&lt;/span&gt;&lt;/div&gt;" style="rhombus;whiteSpace=wrap;html=1;" vertex="1" parent="1">
          <mxGeometry x="540" y="3840" width="120" height="80" as="geometry" />
        </mxCell>
        <mxCell id="pTsCop-I9byvKBuPMb4h-39" value="" style="endArrow=none;html=1;rounded=0;entryX=0.5;entryY=1;entryDx=0;entryDy=0;exitX=0.5;exitY=0;exitDx=0;exitDy=0;" edge="1" parent="1" source="pTsCop-I9byvKBuPMb4h-38" target="pTsCop-I9byvKBuPMb4h-31">
          <mxGeometry width="50" height="50" relative="1" as="geometry">
            <mxPoint x="530" y="3770" as="sourcePoint" />
            <mxPoint x="580" y="3720" as="targetPoint" />
          </mxGeometry>
        </mxCell>
        <mxCell id="pTsCop-I9byvKBuPMb4h-40" value="" style="endArrow=none;html=1;rounded=0;exitX=1;exitY=0.5;exitDx=0;exitDy=0;entryX=0.5;entryY=0;entryDx=0;entryDy=0;" edge="1" parent="1" source="pTsCop-I9byvKBuPMb4h-38" target="pTsCop-I9byvKBuPMb4h-41">
          <mxGeometry width="50" height="50" relative="1" as="geometry">
            <mxPoint x="550" y="3820" as="sourcePoint" />
            <mxPoint x="740" y="3900" as="targetPoint" />
            <Array as="points">
              <mxPoint x="740" y="3880" />
            </Array>
          </mxGeometry>
        </mxCell>
        <mxCell id="pTsCop-I9byvKBuPMb4h-41" value="res = j" style="rounded=0;whiteSpace=wrap;html=1;" vertex="1" parent="1">
          <mxGeometry x="680" y="3900" width="120" height="80" as="geometry" />
        </mxCell>
        <mxCell id="pTsCop-I9byvKBuPMb4h-42" value="" style="endArrow=none;html=1;rounded=0;entryX=0;entryY=0.5;entryDx=0;entryDy=0;exitX=0.5;exitY=1;exitDx=0;exitDy=0;" edge="1" parent="1" source="pTsCop-I9byvKBuPMb4h-41" target="pTsCop-I9byvKBuPMb4h-38">
          <mxGeometry width="50" height="50" relative="1" as="geometry">
            <mxPoint x="460" y="3920" as="sourcePoint" />
            <mxPoint x="570" y="3830" as="targetPoint" />
            <Array as="points">
              <mxPoint x="740" y="3990" />
              <mxPoint x="510" y="3990" />
              <mxPoint x="510" y="3880" />
            </Array>
          </mxGeometry>
        </mxCell>
        <mxCell id="pTsCop-I9byvKBuPMb4h-49" value="&lt;span style=&quot;font-size: 11px;&quot;&gt;res + K &amp;gt; 25&lt;/span&gt;" style="rhombus;whiteSpace=wrap;html=1;" vertex="1" parent="1">
          <mxGeometry x="540" y="4020" width="120" height="80" as="geometry" />
        </mxCell>
        <mxCell id="pTsCop-I9byvKBuPMb4h-51" value="i_replaced = res + K - 26" style="rounded=0;whiteSpace=wrap;html=1;" vertex="1" parent="1">
          <mxGeometry x="680" y="4102" width="120" height="80" as="geometry" />
        </mxCell>
        <mxCell id="pTsCop-I9byvKBuPMb4h-56" value="text_filtered[i] = alphabet_big&lt;div&gt;[i_&lt;span style=&quot;background-color: transparent; color: light-dark(rgb(0, 0, 0), rgb(255, 255, 255));&quot;&gt;replaced]&lt;/span&gt;&lt;/div&gt;" style="rounded=0;whiteSpace=wrap;html=1;" vertex="1" parent="1">
          <mxGeometry x="540" y="4240" width="120" height="80" as="geometry" />
        </mxCell>
        <mxCell id="pTsCop-I9byvKBuPMb4h-57" value="" style="endArrow=none;html=1;rounded=0;exitX=0.5;exitY=0;exitDx=0;exitDy=0;" edge="1" parent="1" source="pTsCop-I9byvKBuPMb4h-56">
          <mxGeometry width="50" height="50" relative="1" as="geometry">
            <mxPoint x="610" y="4240" as="sourcePoint" />
            <mxPoint x="600" y="4210" as="targetPoint" />
          </mxGeometry>
        </mxCell>
        <mxCell id="pTsCop-I9byvKBuPMb4h-59" value="" style="endArrow=none;html=1;rounded=0;entryX=0.5;entryY=1;entryDx=0;entryDy=0;exitX=0.5;exitY=1;exitDx=0;exitDy=0;" edge="1" parent="1" source="pTsCop-I9byvKBuPMb4h-51" target="pTsCop-I9byvKBuPMb4h-55">
          <mxGeometry width="50" height="50" relative="1" as="geometry">
            <mxPoint x="740" y="4160" as="sourcePoint" />
            <mxPoint x="480" y="4160" as="targetPoint" />
            <Array as="points">
              <mxPoint x="740" y="4210" />
              <mxPoint x="520" y="4210" />
            </Array>
          </mxGeometry>
        </mxCell>
        <mxCell id="pTsCop-I9byvKBuPMb4h-55" value="i_replaced = res + K" style="rounded=0;whiteSpace=wrap;html=1;" vertex="1" parent="1">
          <mxGeometry x="460" y="4110" width="120" height="80" as="geometry" />
        </mxCell>
        <mxCell id="pTsCop-I9byvKBuPMb4h-61" value="" style="endArrow=none;html=1;rounded=0;entryX=0;entryY=0.5;entryDx=0;entryDy=0;exitX=0.5;exitY=0;exitDx=0;exitDy=0;" edge="1" parent="1" source="pTsCop-I9byvKBuPMb4h-63" target="pTsCop-I9byvKBuPMb4h-27">
          <mxGeometry width="50" height="50" relative="1" as="geometry">
            <mxPoint x="80" y="3740" as="sourcePoint" />
            <mxPoint x="150" y="3810" as="targetPoint" />
            <Array as="points">
              <mxPoint x="160" y="3720" />
            </Array>
          </mxGeometry>
        </mxCell>
        <mxCell id="pTsCop-I9byvKBuPMb4h-63" value="&lt;font style=&quot;font-size: 10px;&quot;&gt;text_filtered[i]&amp;nbsp;&lt;/font&gt;&lt;div&gt;&lt;font style=&quot;font-size: 10px;&quot;&gt;&lt;font style=&quot;&quot;&gt;есть&amp;nbsp;&lt;/font&gt;&lt;span style=&quot;background-color: transparent; color: light-dark(rgb(0, 0, 0), rgb(255, 255, 255));&quot;&gt;в&amp;nbsp;&lt;/span&gt;&lt;/font&gt;&lt;/div&gt;&lt;div&gt;&lt;span style=&quot;background-color: transparent; color: light-dark(rgb(0, 0, 0), rgb(255, 255, 255));&quot;&gt;&lt;font style=&quot;font-size: 10px;&quot;&gt;alphabet_small&lt;/font&gt;&lt;/span&gt;&lt;/div&gt;" style="rhombus;whiteSpace=wrap;html=1;" vertex="1" parent="1">
          <mxGeometry x="100" y="3740" width="120" height="80" as="geometry" />
        </mxCell>
        <mxCell id="pTsCop-I9byvKBuPMb4h-65" value="" style="endArrow=none;html=1;rounded=0;entryX=1;entryY=0.5;entryDx=0;entryDy=0;exitX=0.5;exitY=0;exitDx=0;exitDy=0;" edge="1" parent="1" source="pTsCop-I9byvKBuPMb4h-67" target="pTsCop-I9byvKBuPMb4h-63">
          <mxGeometry width="50" height="50" relative="1" as="geometry">
            <mxPoint x="280" y="3800" as="sourcePoint" />
            <mxPoint x="220" y="3780" as="targetPoint" />
            <Array as="points">
              <mxPoint x="280" y="3780" />
            </Array>
          </mxGeometry>
        </mxCell>
        <mxCell id="pTsCop-I9byvKBuPMb4h-67" value="j = 0;&lt;div&gt;j &amp;lt; длины alphabet_small;&lt;br&gt;j++&lt;/div&gt;" style="shape=hexagon;perimeter=hexagonPerimeter2;whiteSpace=wrap;html=1;fixedSize=1;" vertex="1" parent="1">
          <mxGeometry x="220" y="3800" width="120" height="80" as="geometry" />
        </mxCell>
        <mxCell id="pTsCop-I9byvKBuPMb4h-68" value="&lt;font style=&quot;font-size: 11px;&quot;&gt;text_filtered[i]&amp;nbsp;&lt;/font&gt;&lt;div&gt;&lt;font style=&quot;font-size: 11px;&quot;&gt;&lt;span style=&quot;background-color: transparent; color: light-dark(rgb(0, 0, 0), rgb(255, 255, 255));&quot;&gt;==&amp;nbsp;&amp;nbsp;&lt;/span&gt;&lt;/font&gt;&lt;span style=&quot;font-size: 11px; background-color: transparent; color: light-dark(rgb(0, 0, 0), rgb(255, 255, 255));&quot;&gt;alphabet_&lt;/span&gt;&lt;/div&gt;&lt;div&gt;&lt;span style=&quot;font-size: 11px; background-color: transparent; color: light-dark(rgb(0, 0, 0), rgb(255, 255, 255));&quot;&gt;small[j]&lt;/span&gt;&lt;/div&gt;" style="rhombus;whiteSpace=wrap;html=1;" vertex="1" parent="1">
          <mxGeometry x="220" y="3900" width="120" height="80" as="geometry" />
        </mxCell>
        <mxCell id="pTsCop-I9byvKBuPMb4h-69" value="" style="endArrow=none;html=1;rounded=0;entryX=0.5;entryY=1;entryDx=0;entryDy=0;exitX=0.5;exitY=0;exitDx=0;exitDy=0;" edge="1" parent="1" source="pTsCop-I9byvKBuPMb4h-68" target="pTsCop-I9byvKBuPMb4h-67">
          <mxGeometry width="50" height="50" relative="1" as="geometry">
            <mxPoint x="210" y="3830" as="sourcePoint" />
            <mxPoint x="260" y="3780" as="targetPoint" />
          </mxGeometry>
        </mxCell>
        <mxCell id="pTsCop-I9byvKBuPMb4h-70" value="" style="endArrow=none;html=1;rounded=0;exitX=1;exitY=0.5;exitDx=0;exitDy=0;entryX=0.5;entryY=0;entryDx=0;entryDy=0;" edge="1" parent="1" source="pTsCop-I9byvKBuPMb4h-68" target="pTsCop-I9byvKBuPMb4h-71">
          <mxGeometry width="50" height="50" relative="1" as="geometry">
            <mxPoint x="230" y="3880" as="sourcePoint" />
            <mxPoint x="420" y="3960" as="targetPoint" />
            <Array as="points">
              <mxPoint x="370" y="3940" />
            </Array>
          </mxGeometry>
        </mxCell>
        <mxCell id="pTsCop-I9byvKBuPMb4h-71" value="res = j" style="rounded=0;whiteSpace=wrap;html=1;" vertex="1" parent="1">
          <mxGeometry x="310" y="4000" width="120" height="80" as="geometry" />
        </mxCell>
        <mxCell id="pTsCop-I9byvKBuPMb4h-72" value="" style="endArrow=none;html=1;rounded=0;entryX=0;entryY=0.5;entryDx=0;entryDy=0;exitX=0.5;exitY=1;exitDx=0;exitDy=0;" edge="1" parent="1" source="pTsCop-I9byvKBuPMb4h-71" target="pTsCop-I9byvKBuPMb4h-68">
          <mxGeometry width="50" height="50" relative="1" as="geometry">
            <mxPoint x="140" y="3980" as="sourcePoint" />
            <mxPoint x="250" y="3890" as="targetPoint" />
            <Array as="points">
              <mxPoint x="370" y="4100" />
              <mxPoint x="190" y="4100" />
              <mxPoint x="190" y="3940" />
            </Array>
          </mxGeometry>
        </mxCell>
        <mxCell id="pTsCop-I9byvKBuPMb4h-74" value="&lt;span style=&quot;font-size: 11px;&quot;&gt;res + K &amp;gt; 25&lt;/span&gt;" style="rhombus;whiteSpace=wrap;html=1;" vertex="1" parent="1">
          <mxGeometry x="220" y="4130" width="120" height="80" as="geometry" />
        </mxCell>
        <mxCell id="pTsCop-I9byvKBuPMb4h-75" value="" style="endArrow=none;html=1;rounded=0;exitX=1;exitY=0.5;exitDx=0;exitDy=0;entryX=0.5;entryY=0;entryDx=0;entryDy=0;" edge="1" parent="1" source="pTsCop-I9byvKBuPMb4h-74" target="pTsCop-I9byvKBuPMb4h-76">
          <mxGeometry width="50" height="50" relative="1" as="geometry">
            <mxPoint x="230" y="4110" as="sourcePoint" />
            <mxPoint x="420" y="4190" as="targetPoint" />
            <Array as="points">
              <mxPoint x="370" y="4170" />
            </Array>
          </mxGeometry>
        </mxCell>
        <mxCell id="pTsCop-I9byvKBuPMb4h-76" value="i_replaced = res + K - 26" style="rounded=0;whiteSpace=wrap;html=1;" vertex="1" parent="1">
          <mxGeometry x="310" y="4220" width="120" height="80" as="geometry" />
        </mxCell>
        <mxCell id="pTsCop-I9byvKBuPMb4h-78" value="text_filtered[i] = alphabet_small&lt;div&gt;[i_&lt;span style=&quot;background-color: transparent; color: light-dark(rgb(0, 0, 0), rgb(255, 255, 255));&quot;&gt;replaced]&lt;/span&gt;&lt;/div&gt;" style="rounded=0;whiteSpace=wrap;html=1;" vertex="1" parent="1">
          <mxGeometry x="220" y="4350" width="120" height="80" as="geometry" />
        </mxCell>
        <mxCell id="pTsCop-I9byvKBuPMb4h-79" value="" style="endArrow=none;html=1;rounded=0;exitX=0.5;exitY=0;exitDx=0;exitDy=0;" edge="1" parent="1" source="pTsCop-I9byvKBuPMb4h-78">
          <mxGeometry width="50" height="50" relative="1" as="geometry">
            <mxPoint x="290" y="4350" as="sourcePoint" />
            <mxPoint x="280" y="4310" as="targetPoint" />
          </mxGeometry>
        </mxCell>
        <mxCell id="pTsCop-I9byvKBuPMb4h-80" value="" style="endArrow=none;html=1;rounded=0;entryX=0.5;entryY=1;entryDx=0;entryDy=0;exitX=0.5;exitY=1;exitDx=0;exitDy=0;" edge="1" parent="1" source="pTsCop-I9byvKBuPMb4h-76" target="pTsCop-I9byvKBuPMb4h-81">
          <mxGeometry width="50" height="50" relative="1" as="geometry">
            <mxPoint x="420" y="4270" as="sourcePoint" />
            <mxPoint x="220" y="4170" as="targetPoint" />
            <Array as="points">
              <mxPoint x="370" y="4310" />
              <mxPoint x="280" y="4310" />
              <mxPoint x="190" y="4310" />
            </Array>
          </mxGeometry>
        </mxCell>
        <mxCell id="pTsCop-I9byvKBuPMb4h-81" value="i_replaced = res + K" style="rounded=0;whiteSpace=wrap;html=1;" vertex="1" parent="1">
          <mxGeometry x="130" y="4220" width="120" height="80" as="geometry" />
        </mxCell>
        <mxCell id="pTsCop-I9byvKBuPMb4h-85" value="" style="endArrow=none;html=1;rounded=0;exitX=0.5;exitY=0;exitDx=0;exitDy=0;entryX=0;entryY=0.5;entryDx=0;entryDy=0;" edge="1" parent="1" source="pTsCop-I9byvKBuPMb4h-55" target="pTsCop-I9byvKBuPMb4h-49">
          <mxGeometry width="50" height="50" relative="1" as="geometry">
            <mxPoint x="530" y="4080" as="sourcePoint" />
            <mxPoint x="580" y="4030" as="targetPoint" />
            <Array as="points">
              <mxPoint x="520" y="4060" />
            </Array>
          </mxGeometry>
        </mxCell>
        <mxCell id="pTsCop-I9byvKBuPMb4h-86" value="" style="endArrow=none;html=1;rounded=0;entryX=0;entryY=0.5;entryDx=0;entryDy=0;exitX=0.5;exitY=0;exitDx=0;exitDy=0;" edge="1" parent="1" source="pTsCop-I9byvKBuPMb4h-81" target="pTsCop-I9byvKBuPMb4h-74">
          <mxGeometry width="50" height="50" relative="1" as="geometry">
            <mxPoint x="260" y="4240" as="sourcePoint" />
            <mxPoint x="310" y="4190" as="targetPoint" />
            <Array as="points">
              <mxPoint x="190" y="4170" />
            </Array>
          </mxGeometry>
        </mxCell>
        <mxCell id="pTsCop-I9byvKBuPMb4h-94" value="" style="endArrow=none;html=1;rounded=0;entryX=0;entryY=0.5;entryDx=0;entryDy=0;exitX=0.5;exitY=1;exitDx=0;exitDy=0;" edge="1" parent="1" source="pTsCop-I9byvKBuPMb4h-78" target="pTsCop-I9byvKBuPMb4h-63">
          <mxGeometry width="50" height="50" relative="1" as="geometry">
            <mxPoint x="140" y="4440" as="sourcePoint" />
            <mxPoint x="270" y="3970" as="targetPoint" />
            <Array as="points">
              <mxPoint x="280" y="4470" />
              <mxPoint x="60" y="4470" />
              <mxPoint x="60" y="4460" />
              <mxPoint x="60" y="3780" />
            </Array>
          </mxGeometry>
        </mxCell>
        <mxCell id="pTsCop-I9byvKBuPMb4h-95" value="" style="endArrow=classic;html=1;rounded=0;entryX=0;entryY=0.5;entryDx=0;entryDy=0;" edge="1" parent="1" target="pTsCop-I9byvKBuPMb4h-67">
          <mxGeometry width="50" height="50" relative="1" as="geometry">
            <mxPoint x="280" y="4100" as="sourcePoint" />
            <mxPoint x="390" y="4110" as="targetPoint" />
            <Array as="points">
              <mxPoint x="280" y="4110" />
              <mxPoint x="160" y="4110" />
              <mxPoint x="160" y="3840" />
            </Array>
          </mxGeometry>
        </mxCell>
        <mxCell id="pTsCop-I9byvKBuPMb4h-97" value="" style="endArrow=classic;html=1;rounded=0;entryX=0;entryY=0.5;entryDx=0;entryDy=0;" edge="1" parent="1" target="pTsCop-I9byvKBuPMb4h-31">
          <mxGeometry width="50" height="50" relative="1" as="geometry">
            <mxPoint x="600" y="3990" as="sourcePoint" />
            <mxPoint x="600" y="4090" as="targetPoint" />
            <Array as="points">
              <mxPoint x="600" y="4000" />
              <mxPoint x="490" y="4000" />
              <mxPoint x="490" y="3780" />
            </Array>
          </mxGeometry>
        </mxCell>
        <mxCell id="pTsCop-I9byvKBuPMb4h-98" value="" style="endArrow=none;html=1;rounded=0;entryX=1;entryY=0.5;entryDx=0;entryDy=0;exitX=0.5;exitY=0;exitDx=0;exitDy=0;" edge="1" parent="1" source="pTsCop-I9byvKBuPMb4h-49" target="pTsCop-I9byvKBuPMb4h-31">
          <mxGeometry width="50" height="50" relative="1" as="geometry">
            <mxPoint x="670" y="3890" as="sourcePoint" />
            <mxPoint x="720" y="3840" as="targetPoint" />
            <Array as="points">
              <mxPoint x="600" y="4010" />
              <mxPoint x="810" y="4010" />
              <mxPoint x="810" y="3780" />
            </Array>
          </mxGeometry>
        </mxCell>
        <mxCell id="pTsCop-I9byvKBuPMb4h-99" value="" style="endArrow=none;html=1;rounded=0;entryX=1;entryY=0.5;entryDx=0;entryDy=0;exitX=0.5;exitY=0;exitDx=0;exitDy=0;" edge="1" parent="1" source="pTsCop-I9byvKBuPMb4h-74" target="pTsCop-I9byvKBuPMb4h-67">
          <mxGeometry width="50" height="50" relative="1" as="geometry">
            <mxPoint x="220" y="4110" as="sourcePoint" />
            <mxPoint x="270" y="4060" as="targetPoint" />
            <Array as="points">
              <mxPoint x="280" y="4120" />
              <mxPoint x="450" y="4120" />
              <mxPoint x="450" y="3840" />
            </Array>
          </mxGeometry>
        </mxCell>
        <mxCell id="pTsCop-I9byvKBuPMb4h-101" value="" style="endArrow=none;html=1;rounded=0;exitX=0.5;exitY=1;exitDx=0;exitDy=0;" edge="1" parent="1" source="pTsCop-I9byvKBuPMb4h-56">
          <mxGeometry width="50" height="50" relative="1" as="geometry">
            <mxPoint x="420" y="4480" as="sourcePoint" />
            <mxPoint x="160" y="4470" as="targetPoint" />
            <Array as="points">
              <mxPoint x="600" y="4490" />
              <mxPoint x="160" y="4490" />
            </Array>
          </mxGeometry>
        </mxCell>
        <mxCell id="pTsCop-I9byvKBuPMb4h-102" value="" style="endArrow=classic;html=1;rounded=0;entryX=0;entryY=0.5;entryDx=0;entryDy=0;" edge="1" parent="1" target="pTsCop-I9byvKBuPMb4h-24">
          <mxGeometry width="50" height="50" relative="1" as="geometry">
            <mxPoint x="340" y="4490" as="sourcePoint" />
            <mxPoint x="560" y="4350" as="targetPoint" />
            <Array as="points">
              <mxPoint x="340" y="4520" />
              <mxPoint x="20" y="4520" />
              <mxPoint x="20" y="3620" />
            </Array>
          </mxGeometry>
        </mxCell>
        <mxCell id="pTsCop-I9byvKBuPMb4h-103" value="" style="endArrow=none;html=1;rounded=0;exitX=1;exitY=0.5;exitDx=0;exitDy=0;" edge="1" parent="1" source="pTsCop-I9byvKBuPMb4h-24">
          <mxGeometry width="50" height="50" relative="1" as="geometry">
            <mxPoint x="640" y="3970" as="sourcePoint" />
            <mxPoint x="340" y="4560" as="targetPoint" />
            <Array as="points">
              <mxPoint x="820" y="3620" />
              <mxPoint x="820" y="4540" />
              <mxPoint x="340" y="4540" />
            </Array>
          </mxGeometry>
        </mxCell>
        <mxCell id="pTsCop-I9byvKBuPMb4h-105" value="" style="verticalLabelPosition=bottom;verticalAlign=top;html=1;shape=offPageConnector;rounded=0;size=0.3333333333333333;" vertex="1" parent="1">
          <mxGeometry x="320" y="4560" width="40" height="40" as="geometry" />
        </mxCell>
        <mxCell id="pTsCop-I9byvKBuPMb4h-106" value="&lt;span style=&quot;font-size: 11px;&quot;&gt;4&lt;/span&gt;&lt;div&gt;&lt;span style=&quot;font-size: 11px;&quot;&gt;5&lt;/span&gt;&lt;/div&gt;" style="text;html=1;align=center;verticalAlign=middle;whiteSpace=wrap;rounded=0;" vertex="1" parent="1">
          <mxGeometry x="310" y="4560" width="60" height="30" as="geometry" />
        </mxCell>
        <mxCell id="pTsCop-I9byvKBuPMb4h-107" value="" style="verticalLabelPosition=bottom;verticalAlign=top;html=1;shape=offPageConnector;rounded=0;size=0.3333333333333333;" vertex="1" parent="1">
          <mxGeometry x="320" y="4680" width="40" height="40" as="geometry" />
        </mxCell>
        <mxCell id="pTsCop-I9byvKBuPMb4h-108" value="&lt;span style=&quot;font-size: 11px;&quot;&gt;4&lt;/span&gt;&lt;div&gt;&lt;span style=&quot;font-size: 11px;&quot;&gt;5&lt;/span&gt;&lt;/div&gt;" style="text;html=1;align=center;verticalAlign=middle;whiteSpace=wrap;rounded=0;" vertex="1" parent="1">
          <mxGeometry x="310" y="4680" width="60" height="30" as="geometry" />
        </mxCell>
        <mxCell id="pTsCop-I9byvKBuPMb4h-109" value="" style="endArrow=none;html=1;rounded=0;entryX=0.5;entryY=1;entryDx=0;entryDy=0;exitX=0.5;exitY=0;exitDx=0;exitDy=0;" edge="1" parent="1" source="pTsCop-I9byvKBuPMb4h-110" target="pTsCop-I9byvKBuPMb4h-107">
          <mxGeometry width="50" height="50" relative="1" as="geometry">
            <mxPoint x="340" y="4760" as="sourcePoint" />
            <mxPoint x="400" y="4680" as="targetPoint" />
          </mxGeometry>
        </mxCell>
        <mxCell id="pTsCop-I9byvKBuPMb4h-110" value="count = 0" style="rounded=0;whiteSpace=wrap;html=1;" vertex="1" parent="1">
          <mxGeometry x="280" y="4760" width="120" height="80" as="geometry" />
        </mxCell>
        <mxCell id="pTsCop-I9byvKBuPMb4h-111" value="i = 0;&lt;div&gt;i &amp;lt; длины words;&lt;br&gt;i++&lt;/div&gt;" style="shape=hexagon;perimeter=hexagonPerimeter2;whiteSpace=wrap;html=1;fixedSize=1;" vertex="1" parent="1">
          <mxGeometry x="280" y="4880" width="120" height="80" as="geometry" />
        </mxCell>
        <mxCell id="pTsCop-I9byvKBuPMb4h-113" value="" style="rhombus;whiteSpace=wrap;html=1;" vertex="1" parent="1">
          <mxGeometry x="280" y="5000" width="120" height="80" as="geometry" />
        </mxCell>
        <mxCell id="pTsCop-I9byvKBuPMb4h-114" value="" style="endArrow=none;html=1;rounded=0;entryX=0.5;entryY=1;entryDx=0;entryDy=0;exitX=0.5;exitY=0;exitDx=0;exitDy=0;" edge="1" parent="1" source="pTsCop-I9byvKBuPMb4h-113" target="pTsCop-I9byvKBuPMb4h-111">
          <mxGeometry width="50" height="50" relative="1" as="geometry">
            <mxPoint x="360" y="5080" as="sourcePoint" />
            <mxPoint x="410" y="5030" as="targetPoint" />
          </mxGeometry>
        </mxCell>
        <mxCell id="pTsCop-I9byvKBuPMb4h-115" value="длина list_encrypted[i]&amp;nbsp;&lt;span style=&quot;background-color: transparent; color: light-dark(rgb(0, 0, 0), rgb(255, 255, 255));&quot;&gt;!=&amp;nbsp;&lt;/span&gt;&lt;div&gt;&lt;div&gt;длине words[i]&lt;/div&gt;&lt;/div&gt;" style="strokeWidth=2;html=1;shape=mxgraph.flowchart.annotation_1;align=left;pointerEvents=1;" vertex="1" parent="1">
          <mxGeometry x="480" y="4940" width="50" height="100" as="geometry" />
        </mxCell>
        <mxCell id="pTsCop-I9byvKBuPMb4h-118" value="" style="endArrow=none;dashed=1;html=1;rounded=0;exitX=1;exitY=0;exitDx=0;exitDy=0;entryX=0;entryY=0.5;entryDx=0;entryDy=0;entryPerimeter=0;" edge="1" parent="1" source="pTsCop-I9byvKBuPMb4h-113" target="pTsCop-I9byvKBuPMb4h-115">
          <mxGeometry width="50" height="50" relative="1" as="geometry">
            <mxPoint x="430" y="4960" as="sourcePoint" />
            <mxPoint x="480" y="4910" as="targetPoint" />
          </mxGeometry>
        </mxCell>
        <mxCell id="pTsCop-I9byvKBuPMb4h-120" value="" style="endArrow=none;html=1;rounded=0;entryX=0.5;entryY=1;entryDx=0;entryDy=0;exitX=0.5;exitY=0;exitDx=0;exitDy=0;" edge="1" parent="1" source="pTsCop-I9byvKBuPMb4h-111" target="pTsCop-I9byvKBuPMb4h-110">
          <mxGeometry width="50" height="50" relative="1" as="geometry">
            <mxPoint x="400" y="5080" as="sourcePoint" />
            <mxPoint x="450" y="5030" as="targetPoint" />
          </mxGeometry>
        </mxCell>
        <mxCell id="pTsCop-I9byvKBuPMb4h-121" value="True" style="text;html=1;align=center;verticalAlign=middle;whiteSpace=wrap;rounded=0;" vertex="1" parent="1">
          <mxGeometry x="680" y="3850" width="60" height="30" as="geometry" />
        </mxCell>
        <mxCell id="pTsCop-I9byvKBuPMb4h-122" value="True" style="text;html=1;align=center;verticalAlign=middle;whiteSpace=wrap;rounded=0;" vertex="1" parent="1">
          <mxGeometry x="540" y="3690" width="60" height="30" as="geometry" />
        </mxCell>
        <mxCell id="pTsCop-I9byvKBuPMb4h-123" value="True" style="text;html=1;align=center;verticalAlign=middle;whiteSpace=wrap;rounded=0;" vertex="1" parent="1">
          <mxGeometry x="234" y="3750" width="60" height="30" as="geometry" />
        </mxCell>
        <mxCell id="pTsCop-I9byvKBuPMb4h-126" value="True" style="text;html=1;align=center;verticalAlign=middle;whiteSpace=wrap;rounded=0;" vertex="1" parent="1">
          <mxGeometry x="320" y="3910" width="60" height="30" as="geometry" />
        </mxCell>
        <mxCell id="pTsCop-I9byvKBuPMb4h-127" value="True" style="text;html=1;align=center;verticalAlign=middle;whiteSpace=wrap;rounded=0;" vertex="1" parent="1">
          <mxGeometry x="690" y="4030" width="60" height="30" as="geometry" />
        </mxCell>
        <mxCell id="pTsCop-I9byvKBuPMb4h-129" value="True" style="text;html=1;align=center;verticalAlign=middle;whiteSpace=wrap;rounded=0;" vertex="1" parent="1">
          <mxGeometry x="320" y="4140" width="60" height="30" as="geometry" />
        </mxCell>
        <mxCell id="pTsCop-I9byvKBuPMb4h-130" value="False" style="text;html=1;align=center;verticalAlign=middle;whiteSpace=wrap;rounded=0;" vertex="1" parent="1">
          <mxGeometry x="50" y="3750" width="60" height="30" as="geometry" />
        </mxCell>
        <mxCell id="pTsCop-I9byvKBuPMb4h-131" value="False" style="text;html=1;align=center;verticalAlign=middle;whiteSpace=wrap;rounded=0;" vertex="1" parent="1">
          <mxGeometry x="180" y="3910" width="60" height="30" as="geometry" />
        </mxCell>
        <mxCell id="pTsCop-I9byvKBuPMb4h-132" value="False" style="text;html=1;align=center;verticalAlign=middle;whiteSpace=wrap;rounded=0;" vertex="1" parent="1">
          <mxGeometry x="180" y="4140" width="60" height="30" as="geometry" />
        </mxCell>
        <mxCell id="pTsCop-I9byvKBuPMb4h-133" value="False" style="text;html=1;align=center;verticalAlign=middle;whiteSpace=wrap;rounded=0;" vertex="1" parent="1">
          <mxGeometry x="500" y="4030" width="60" height="30" as="geometry" />
        </mxCell>
        <mxCell id="pTsCop-I9byvKBuPMb4h-134" value="" style="endArrow=none;html=1;rounded=0;exitX=1;exitY=0.5;exitDx=0;exitDy=0;entryX=0.5;entryY=0;entryDx=0;entryDy=0;" edge="1" parent="1" source="pTsCop-I9byvKBuPMb4h-49" target="pTsCop-I9byvKBuPMb4h-51">
          <mxGeometry width="50" height="50" relative="1" as="geometry">
            <mxPoint x="720" y="4060" as="sourcePoint" />
            <mxPoint x="770" y="4010" as="targetPoint" />
            <Array as="points">
              <mxPoint x="740" y="4060" />
            </Array>
          </mxGeometry>
        </mxCell>
        <mxCell id="pTsCop-I9byvKBuPMb4h-135" value="False" style="text;html=1;align=center;verticalAlign=middle;whiteSpace=wrap;rounded=0;" vertex="1" parent="1">
          <mxGeometry x="500" y="3850" width="60" height="30" as="geometry" />
        </mxCell>
        <mxCell id="pTsCop-I9byvKBuPMb4h-136" value="list_encrypted[i] = list_encrypted[i] + text_flitered[count]" style="rounded=0;whiteSpace=wrap;html=1;" vertex="1" parent="1">
          <mxGeometry x="280" y="5120" width="120" height="80" as="geometry" />
        </mxCell>
        <mxCell id="pTsCop-I9byvKBuPMb4h-137" value="" style="endArrow=none;html=1;rounded=0;exitX=0.5;exitY=0;exitDx=0;exitDy=0;entryX=0.5;entryY=1;entryDx=0;entryDy=0;" edge="1" parent="1" source="pTsCop-I9byvKBuPMb4h-136" target="pTsCop-I9byvKBuPMb4h-113">
          <mxGeometry width="50" height="50" relative="1" as="geometry">
            <mxPoint x="360" y="5120" as="sourcePoint" />
            <mxPoint x="410" y="5070" as="targetPoint" />
          </mxGeometry>
        </mxCell>
        <mxCell id="pTsCop-I9byvKBuPMb4h-138" value="count = count + 1" style="rounded=0;whiteSpace=wrap;html=1;" vertex="1" parent="1">
          <mxGeometry x="280" y="5240" width="120" height="80" as="geometry" />
        </mxCell>
        <mxCell id="pTsCop-I9byvKBuPMb4h-139" value="" style="endArrow=none;html=1;rounded=0;exitX=0.5;exitY=0;exitDx=0;exitDy=0;entryX=0.5;entryY=1;entryDx=0;entryDy=0;" edge="1" parent="1" source="pTsCop-I9byvKBuPMb4h-138" target="pTsCop-I9byvKBuPMb4h-136">
          <mxGeometry width="50" height="50" relative="1" as="geometry">
            <mxPoint x="320" y="5050" as="sourcePoint" />
            <mxPoint x="370" y="5000" as="targetPoint" />
          </mxGeometry>
        </mxCell>
        <mxCell id="pTsCop-I9byvKBuPMb4h-140" value="Проход по элементам i в list_encrypted" style="shape=hexagon;perimeter=hexagonPerimeter2;whiteSpace=wrap;html=1;fixedSize=1;" vertex="1" parent="1">
          <mxGeometry x="280" y="5360" width="120" height="80" as="geometry" />
        </mxCell>
        <mxCell id="pTsCop-I9byvKBuPMb4h-141" value="&lt;font style=&quot;font-size: 11px;&quot;&gt;i != list_encrypted[-1]&lt;/font&gt;" style="rhombus;whiteSpace=wrap;html=1;" vertex="1" parent="1">
          <mxGeometry x="280" y="5460" width="120" height="80" as="geometry" />
        </mxCell>
        <mxCell id="pTsCop-I9byvKBuPMb4h-142" value="text_encrypted = text_encrypted + i&lt;div&gt;text_encrypted = text_encrypted + &#39; &#39;&lt;/div&gt;" style="rounded=0;whiteSpace=wrap;html=1;" vertex="1" parent="1">
          <mxGeometry x="440" y="5520" width="120" height="80" as="geometry" />
        </mxCell>
        <mxCell id="pTsCop-I9byvKBuPMb4h-143" value="text_encrypted = text_encrypted + i&lt;div&gt;text_encrypted = text_encrypted + &#39;.&#39;&lt;/div&gt;" style="rounded=0;whiteSpace=wrap;html=1;" vertex="1" parent="1">
          <mxGeometry x="120" y="5520" width="120" height="80" as="geometry" />
        </mxCell>
        <mxCell id="pTsCop-I9byvKBuPMb4h-144" value="" style="endArrow=none;html=1;rounded=0;entryX=1;entryY=0.5;entryDx=0;entryDy=0;exitX=0.5;exitY=0;exitDx=0;exitDy=0;" edge="1" parent="1" source="pTsCop-I9byvKBuPMb4h-140" target="pTsCop-I9byvKBuPMb4h-111">
          <mxGeometry width="50" height="50" relative="1" as="geometry">
            <mxPoint x="320" y="5600" as="sourcePoint" />
            <mxPoint x="370" y="5550" as="targetPoint" />
            <Array as="points">
              <mxPoint x="340" y="5350" />
              <mxPoint x="640" y="5350" />
              <mxPoint x="640" y="4920" />
            </Array>
          </mxGeometry>
        </mxCell>
        <mxCell id="pTsCop-I9byvKBuPMb4h-145" value="" style="endArrow=classic;html=1;rounded=0;exitX=0.5;exitY=1;exitDx=0;exitDy=0;entryX=0;entryY=0.5;entryDx=0;entryDy=0;" edge="1" parent="1" source="pTsCop-I9byvKBuPMb4h-138" target="pTsCop-I9byvKBuPMb4h-111">
          <mxGeometry width="50" height="50" relative="1" as="geometry">
            <mxPoint x="390" y="5220" as="sourcePoint" />
            <mxPoint x="440" y="5170" as="targetPoint" />
            <Array as="points">
              <mxPoint x="340" y="5330" />
              <mxPoint x="80" y="5330" />
              <mxPoint x="80" y="4920" />
            </Array>
          </mxGeometry>
        </mxCell>
        <mxCell id="pTsCop-I9byvKBuPMb4h-146" value="" style="endArrow=none;html=1;rounded=0;entryX=0.5;entryY=1;entryDx=0;entryDy=0;exitX=0.5;exitY=0;exitDx=0;exitDy=0;" edge="1" parent="1" source="pTsCop-I9byvKBuPMb4h-141" target="pTsCop-I9byvKBuPMb4h-140">
          <mxGeometry width="50" height="50" relative="1" as="geometry">
            <mxPoint x="330" y="5440" as="sourcePoint" />
            <mxPoint x="380" y="5390" as="targetPoint" />
          </mxGeometry>
        </mxCell>
        <mxCell id="pTsCop-I9byvKBuPMb4h-147" value="" style="endArrow=none;html=1;rounded=0;entryX=0.5;entryY=0;entryDx=0;entryDy=0;exitX=1;exitY=0.5;exitDx=0;exitDy=0;" edge="1" parent="1" source="pTsCop-I9byvKBuPMb4h-141" target="pTsCop-I9byvKBuPMb4h-142">
          <mxGeometry width="50" height="50" relative="1" as="geometry">
            <mxPoint x="330" y="5440" as="sourcePoint" />
            <mxPoint x="380" y="5390" as="targetPoint" />
            <Array as="points">
              <mxPoint x="500" y="5500" />
            </Array>
          </mxGeometry>
        </mxCell>
        <mxCell id="pTsCop-I9byvKBuPMb4h-150" value="" style="endArrow=none;html=1;rounded=0;exitX=0.5;exitY=0;exitDx=0;exitDy=0;entryX=0;entryY=0.5;entryDx=0;entryDy=0;" edge="1" parent="1" source="pTsCop-I9byvKBuPMb4h-143" target="pTsCop-I9byvKBuPMb4h-141">
          <mxGeometry width="50" height="50" relative="1" as="geometry">
            <mxPoint x="320" y="5440" as="sourcePoint" />
            <mxPoint x="370" y="5390" as="targetPoint" />
            <Array as="points">
              <mxPoint x="180" y="5500" />
            </Array>
          </mxGeometry>
        </mxCell>
        <mxCell id="pTsCop-I9byvKBuPMb4h-152" value="" style="endArrow=none;html=1;rounded=0;exitX=0.5;exitY=1;exitDx=0;exitDy=0;entryX=0.5;entryY=1;entryDx=0;entryDy=0;" edge="1" parent="1" source="pTsCop-I9byvKBuPMb4h-142" target="pTsCop-I9byvKBuPMb4h-143">
          <mxGeometry width="50" height="50" relative="1" as="geometry">
            <mxPoint x="300" y="5530" as="sourcePoint" />
            <mxPoint x="350" y="5480" as="targetPoint" />
            <Array as="points">
              <mxPoint x="500" y="5610" />
              <mxPoint x="180" y="5610" />
            </Array>
          </mxGeometry>
        </mxCell>
        <mxCell id="pTsCop-I9byvKBuPMb4h-153" value="" style="endArrow=classic;html=1;rounded=0;entryX=0;entryY=0.5;entryDx=0;entryDy=0;" edge="1" parent="1" target="pTsCop-I9byvKBuPMb4h-140">
          <mxGeometry width="50" height="50" relative="1" as="geometry">
            <mxPoint x="340" y="5610" as="sourcePoint" />
            <mxPoint x="370" y="5400" as="targetPoint" />
            <Array as="points">
              <mxPoint x="340" y="5630" />
              <mxPoint x="80" y="5630" />
              <mxPoint x="80" y="5400" />
            </Array>
          </mxGeometry>
        </mxCell>
        <mxCell id="pTsCop-I9byvKBuPMb4h-154" value="" style="endArrow=none;html=1;rounded=0;exitX=1;exitY=0.5;exitDx=0;exitDy=0;entryX=0.5;entryY=0;entryDx=0;entryDy=0;" edge="1" parent="1" source="pTsCop-I9byvKBuPMb4h-140" target="pTsCop-I9byvKBuPMb4h-155">
          <mxGeometry width="50" height="50" relative="1" as="geometry">
            <mxPoint x="440" y="5490" as="sourcePoint" />
            <mxPoint x="340" y="5720" as="targetPoint" />
            <Array as="points">
              <mxPoint x="640" y="5400" />
              <mxPoint x="640" y="5650" />
              <mxPoint x="340" y="5650" />
            </Array>
          </mxGeometry>
        </mxCell>
        <mxCell id="pTsCop-I9byvKBuPMb4h-155" value="Вывод text_encrypted" style="shape=parallelogram;perimeter=parallelogramPerimeter;whiteSpace=wrap;html=1;fixedSize=1;" vertex="1" parent="1">
          <mxGeometry x="280" y="5670" width="120" height="80" as="geometry" />
        </mxCell>
        <mxCell id="pTsCop-I9byvKBuPMb4h-156" value="Конец" style="rounded=1;whiteSpace=wrap;html=1;" vertex="1" parent="1">
          <mxGeometry x="280" y="5780" width="120" height="40" as="geometry" />
        </mxCell>
        <mxCell id="pTsCop-I9byvKBuPMb4h-157" value="" style="endArrow=none;html=1;rounded=0;exitX=0.5;exitY=0;exitDx=0;exitDy=0;entryX=0.5;entryY=1;entryDx=0;entryDy=0;" edge="1" parent="1" source="pTsCop-I9byvKBuPMb4h-156" target="pTsCop-I9byvKBuPMb4h-155">
          <mxGeometry width="50" height="50" relative="1" as="geometry">
            <mxPoint x="310" y="5710" as="sourcePoint" />
            <mxPoint x="360" y="5660" as="targetPoint" />
          </mxGeometry>
        </mxCell>
        <mxCell id="pTsCop-I9byvKBuPMb4h-158" value="True" style="text;html=1;align=center;verticalAlign=middle;whiteSpace=wrap;rounded=0;" vertex="1" parent="1">
          <mxGeometry x="450" y="5470" width="60" height="30" as="geometry" />
        </mxCell>
        <mxCell id="pTsCop-I9byvKBuPMb4h-159" value="False" style="text;html=1;align=center;verticalAlign=middle;whiteSpace=wrap;rounded=0;" vertex="1" parent="1">
          <mxGeometry x="174" y="5470" width="60" height="30" as="geometry" />
        </mxCell>
      </root>
    </mxGraphModel>
  </diagram>
</mxfile>
